<?xml version="1.0" standalone="no"?>
<!DOCTYPE svg PUBLIC "-//W3C//DTD SVG 20010904//EN"
 "http://www.w3.org/TR/2001/REC-SVG-20010904/DTD/svg10.dtd">
<svg version="1.0" xmlns="http://www.w3.org/2000/svg"
 width="1920.000000pt" height="1080.000000pt" viewBox="0 0 1920.000000 1080.000000"
 preserveAspectRatio="xMidYMid meet">

<g transform="translate(0.000000,1080.000000) scale(0.100000,-0.100000)"
fill="#000000" stroke="none">
<path d="M14764 10765 l15 -35 -57 -42 c-364 -269 -365 -270 -379 -246 -11 20
-9 26 12 45 14 12 25 27 25 33 0 15 -39 90 -47 90 -4 0 -17 -10 -30 -22 -13
-12 -24 -20 -26 -17 -2 2 -25 43 -51 92 -42 78 -49 86 -66 77 -19 -10 -17 -15
28 -106 l47 -96 -35 -29 c-19 -16 -37 -29 -40 -29 -3 0 -25 38 -50 85 -45 84
-53 92 -78 76 -10 -6 -2 -30 37 -103 l51 -94 -30 -22 -30 -23 25 -50 26 -50
26 21 c14 11 29 20 33 20 18 0 19 -34 3 -54 -10 -12 -11 -15 -3 -8 22 19 28
15 51 -29 l21 -42 -29 -22 -28 -23 22 -46 c24 -48 42 -57 63 -31 7 8 16 15 20
15 5 0 29 -38 55 -85 47 -87 51 -91 73 -76 11 6 3 29 -33 102 l-47 93 38 33
38 33 43 -77 c23 -43 44 -82 46 -87 2 -5 13 -4 25 3 l22 12 -47 88 -48 88 29
24 28 25 -23 47 c-24 49 -38 57 -59 32 -20 -24 -35 -18 -54 21 -9 20 -16 38
-14 39 28 23 402 287 411 290 8 4 39 -69 93 -220 l81 -225 -113 -81 c-63 -44
-114 -83 -114 -85 0 -3 49 29 109 70 60 42 113 76 118 76 4 0 35 -75 68 -167
33 -92 61 -169 63 -172 1 -3 -23 -4 -53 -3 -71 5 -146 -29 -218 -97 -74 -70
-110 -146 -111 -232 l-1 -66 -118 -78 c-64 -43 -119 -76 -122 -73 -2 2 -12 82
-22 177 -12 126 -21 175 -31 178 -31 13 -33 -14 -13 -203 11 -104 17 -192 13
-195 -19 -17 -655 -437 -782 -516 -380 -237 -841 -481 -1095 -581 -148 -58
-373 -128 -382 -118 -3 3 9 99 28 212 l34 207 110 47 c136 58 345 162 490 246
105 60 114 63 195 69 83 6 84 5 60 -12 -108 -76 -134 -169 -68 -240 65 -70
242 -57 337 23 53 45 66 72 81 161 13 77 18 83 88 83 29 0 33 3 30 23 -3 20
-8 22 -52 19 -47 -4 -48 -3 -43 20 3 12 9 46 13 75 l6 51 60 7 c53 6 59 9 56
28 -3 19 -9 21 -49 19 -26 -2 -49 0 -51 5 -3 4 -1 27 4 49 8 38 16 46 96 99
167 111 882 614 882 621 0 3 -42 -24 -92 -59 -524 -363 -864 -597 -870 -597
-3 0 18 135 46 299 l51 299 235 172 c129 95 242 179 250 188 13 14 13 15 0 5
-93 -66 -458 -328 -469 -337 -11 -9 -12 -2 -6 42 6 48 5 52 -13 52 -16 0 -21
-9 -27 -57 -4 -31 -9 -62 -12 -69 -10 -26 -626 -451 -631 -436 -1 5 34 227 78
493 44 266 82 491 83 499 1 8 -5 16 -14 18 -13 2 -28 -73 -99 -500 -46 -277
-85 -505 -87 -507 -1 -2 -11 3 -21 12 -27 25 -99 37 -154 27 -157 -30 -239
-158 -157 -246 11 -12 17 -24 12 -27 -42 -25 -246 -137 -250 -137 -3 0 -3 20
0 44 6 41 5 44 -21 49 -202 37 -1263 209 -1267 205 -6 -5 -105 -575 -105 -599
0 -12 -49 -4 -151 27 -108 32 -204 74 -320 139 -86 49 -98 59 -94 78 3 12 21
119 40 237 20 118 38 216 40 218 2 3 29 -17 60 -44 129 -110 164 -175 146
-271 -12 -61 -26 -98 -52 -135 -26 -36 -15 -53 11 -18 50 66 65 113 67 206 1
51 9 118 19 150 34 119 3 226 -111 378 -57 75 -75 112 -75 152 0 13 -6 24 -12
24 -9 0 -35 -130 -84 -426 -40 -234 -74 -428 -77 -430 -3 -3 -16 1 -29 9 -12
9 -41 19 -63 23 -22 4 -92 38 -155 76 -206 123 -400 185 -608 195 -114 6 -123
7 -127 27 -2 12 -16 93 -31 181 -14 88 -26 161 -27 161 -5 4 -983 -249 -990
-256 -5 -4 12 -140 38 -300 l47 -293 -84 -86 c-47 -47 -143 -149 -214 -226
-71 -77 -132 -141 -135 -143 -9 -4 -15 54 -30 256 -7 94 -17 172 -21 172 -5 0
-136 -32 -293 -71 -283 -71 -285 -72 -285 -98 0 -14 14 -186 30 -381 17 -195
30 -364 30 -376 0 -45 -285 -178 -465 -215 -148 -31 -343 -26 -462 12 -41 13
-41 19 -2 41 17 10 38 35 49 61 l19 43 -78 339 c-46 199 -83 341 -91 343 -8 3
-10 -2 -7 -14 3 -11 33 -140 67 -289 33 -148 63 -278 66 -287 4 -15 -1 -18
-31 -18 -60 0 -114 -38 -147 -103 l-14 -29 -55 47 c-96 82 -299 338 -299 379
0 12 9 81 21 154 20 121 20 166 0 134 -4 -7 -16 -67 -26 -132 -10 -66 -22
-120 -25 -120 -4 0 -32 33 -63 73 -123 164 -228 257 -371 329 -108 55 -208 79
-346 84 l-115 4 -57 152 c-32 84 -58 158 -58 164 0 7 64 35 143 64 78 29 157
59 174 66 30 12 34 11 43 -5 8 -16 2 -22 -53 -42 -34 -12 -63 -23 -65 -25 -2
-1 4 -18 12 -38 l15 -36 51 20 c28 11 57 20 65 20 7 0 22 -24 33 -52 35 -94
35 -98 15 -98 -32 0 -84 -39 -99 -75 -18 -44 -18 -60 2 -79 25 -26 69 -19 108
15 56 49 55 71 -14 253 -33 87 -59 160 -58 161 9 7 230 86 232 84 7 -8 156
-415 156 -427 0 -6 -12 -12 -26 -12 -16 0 -39 -13 -60 -34 -28 -28 -34 -42
-34 -75 0 -34 4 -43 25 -53 48 -22 135 42 135 100 0 15 -39 131 -86 257 -47
127 -93 250 -101 275 -9 25 -17 47 -19 49 -2 3 -628 -226 -642 -234 -1 -1 31
-92 71 -201 l74 -198 -106 -22 c-58 -12 -144 -36 -191 -52 -58 -21 -87 -27
-91 -20 -4 6 -35 87 -70 180 -34 92 -66 168 -70 168 -26 0 -629 -234 -629
-245 0 -6 36 -109 81 -229 87 -235 94 -257 76 -250 -7 2 -58 -31 -114 -73
-531 -406 -592 -450 -602 -435 -4 7 -20 126 -36 264 -15 139 -31 256 -34 260
-5 5 -758 -144 -781 -155 -3 -1 14 -172 39 -380 24 -208 41 -380 39 -383 -3
-3 -37 -6 -75 -6 -59 -1 -77 3 -114 24 -25 15 -50 37 -56 50 -15 32 -34 130
-39 208 -2 36 -8 83 -13 105 -6 22 -12 70 -15 107 -9 120 -73 208 -178 246
-56 20 -55 13 -28 172 11 63 20 122 20 130 -1 41 -19 -24 -35 -127 l-18 -112
-41 5 c-33 5 -48 1 -79 -20 -51 -35 -70 -34 -63 2 18 83 46 275 42 280 -8 7
-12 -10 -37 -164 l-22 -141 -106 -21 c-58 -11 -107 -19 -109 -17 -3 3 32 225
54 345 4 24 3 32 -3 25 -6 -5 -21 -73 -33 -150 -12 -77 -26 -161 -32 -187 l-9
-47 -82 -27 c-126 -41 -312 -125 -532 -239 -181 -92 -203 -101 -220 -89 -33
25 -71 17 -110 -22 -20 -19 -38 -49 -42 -65 -4 -21 -21 -40 -67 -70 -85 -58
-198 -150 -192 -156 3 -3 27 12 53 34 69 57 179 133 192 133 6 0 11 -9 11 -20
0 -12 7 -35 16 -52 19 -37 26 -30 -116 -122 -50 -32 -112 -79 -138 -103 -56
-53 -38 -46 36 14 60 49 78 56 40 16 -37 -40 -58 -86 -58 -127 0 -29 -7 -41
-40 -67 -22 -18 -40 -36 -40 -42 0 -5 18 5 39 22 21 17 43 31 47 30 11 -1 78
-78 73 -83 -2 -1 -35 -24 -74 -50 -87 -58 -120 -85 -112 -92 3 -4 25 9 49 29
24 19 69 51 100 72 l57 37 49 -16 c27 -9 68 -20 93 -24 l44 -8 -92 -47 c-109
-55 -205 -113 -280 -169 -88 -65 -54 -54 52 17 131 87 357 201 419 210 27 3
54 9 60 11 18 7 76 -112 76 -156 0 -42 -33 -80 -92 -104 -37 -16 -129 -22
-141 -10 -3 4 13 16 36 28 27 14 45 31 52 50 8 25 6 31 -18 52 -70 60 -214 -6
-193 -90 25 -100 294 -93 375 10 30 38 26 84 -14 165 l-36 70 32 17 c18 9 49
32 69 49 61 54 366 167 610 227 139 35 307 62 317 53 3 -3 -4 -58 -14 -121
-11 -64 -16 -116 -12 -116 5 0 11 10 14 23 6 29 35 200 35 210 0 11 112 8 172
-4 68 -15 135 -49 172 -88 33 -34 45 -92 51 -231 13 -349 25 -409 97 -476 54
-51 95 -67 185 -72 83 -5 247 24 283 49 12 8 11 9 -5 5 -143 -38 -290 -49
-364 -27 -98 30 -152 109 -159 234 l-5 79 45 -44 c65 -66 116 -82 235 -76 73
4 124 14 196 38 55 17 97 33 95 35 -2 2 -38 -7 -79 -20 -195 -62 -364 -52
-435 27 -39 42 -54 84 -54 153 0 36 4 65 8 65 5 0 17 -9 28 -21 59 -65 178
-83 319 -49 50 11 104 28 120 36 17 8 21 12 10 8 -147 -43 -280 -55 -360 -33
-58 16 -125 86 -125 130 0 19 -3 59 -7 89 l-6 54 42 -36 c80 -69 194 -75 364
-21 74 23 50 25 -38 3 -88 -23 -198 -26 -258 -8 -22 7 -54 26 -71 43 -26 26
-33 44 -43 110 -18 111 -18 111 21 77 19 -16 51 -35 70 -42 l36 -12 -25 -30
c-14 -16 -25 -36 -25 -43 0 -8 -9 -19 -20 -25 -21 -11 -18 -33 3 -28 7 1 24
-6 39 -15 42 -29 93 -14 150 45 28 29 59 51 77 54 18 4 31 13 31 21 0 10 -6
13 -16 9 -48 -19 -64 -18 -64 1 0 16 11 23 53 32 28 7 70 21 92 32 22 11 31
17 20 14 -11 -4 -53 -16 -92 -28 -40 -11 -74 -19 -77 -16 -3 3 -60 470 -69
569 -2 24 2 26 118 51 66 15 123 24 126 20 4 -3 12 -53 19 -111 6 -58 14 -121
17 -140 l5 -36 -39 4 c-112 9 -197 -142 -96 -171 46 -14 122 25 144 73 16 33
16 45 -1 180 -10 80 -21 172 -24 204 -3 33 -9 74 -12 92 -7 36 -20 30 149 64
60 12 110 20 113 18 2 -2 10 -62 19 -133 8 -72 17 -144 20 -161 5 -29 4 -30
-30 -26 -45 5 -118 -36 -134 -77 -41 -98 71 -138 154 -55 42 42 42 44 14 281
-11 96 -19 176 -17 178 2 2 45 12 95 23 l93 20 5 -32 c10 -60 56 -468 53 -471
-17 -17 -314 -200 -385 -238 -51 -27 -93 -50 -93 -53 0 -15 278 140 406 226
54 37 73 46 77 35 3 -7 9 -52 13 -99 7 -84 6 -85 -15 -79 -54 14 -151 -53
-151 -105 0 -22 -31 -43 -205 -134 -60 -32 -106 -58 -102 -58 9 0 222 106 274
136 30 18 32 18 51 1 58 -53 182 21 182 110 0 29 11 39 163 146 89 64 213 154
276 201 63 47 115 85 117 83 1 -1 5 -54 9 -117 l6 -115 -143 -101 c-306 -217
-550 -370 -773 -486 -71 -37 -127 -68 -122 -68 4 0 62 27 130 59 202 98 458
258 759 474 l147 106 5 -32 c3 -18 7 -70 10 -117 l6 -85 -103 -70 c-289 -197
-523 -340 -758 -464 -63 -34 -109 -61 -103 -61 19 0 295 144 414 217 133 81
337 214 461 301 l86 60 7 -51 c3 -29 6 -78 6 -109 l0 -57 -31 9 c-56 16 -140
-13 -191 -67 -34 -35 -61 -98 -53 -123 5 -16 -22 -35 -157 -116 -90 -54 -248
-142 -353 -196 -185 -95 -219 -115 -139 -82 130 54 411 205 577 311 l69 44 44
-22 c120 -58 274 50 274 191 0 40 0 40 113 115 l112 75 3 -49 c2 -28 -3 -65
-12 -85 -8 -20 -11 -36 -6 -36 16 0 39 67 47 134 l8 61 170 97 c134 77 398
208 418 208 2 0 -21 -147 -51 -326 -30 -179 -51 -328 -48 -332 16 -15 28 34
76 328 28 173 53 322 56 331 7 26 238 95 391 118 91 14 253 14 253 1 0 -6 29
-10 66 -10 l66 0 -36 -40 c-43 -48 -47 -86 -12 -126 20 -24 32 -28 87 -32 53
-3 72 1 109 20 25 13 56 41 69 61 l24 36 31 -16 c88 -45 246 -196 328 -313 25
-36 78 -121 118 -190 40 -69 95 -160 122 -202 l50 -78 -30 -177 c-18 -104 -26
-182 -21 -187 5 -5 11 -8 13 -5 3 3 17 78 32 167 15 89 30 162 33 162 3 0 26
-24 51 -53 72 -84 155 -152 238 -195 93 -49 157 -68 271 -83 47 -6 89 -16 93
-23 4 -6 8 -26 8 -43 0 -23 5 -33 15 -33 9 0 15 9 15 23 0 57 8 65 73 72 179
18 354 69 536 156 273 130 441 261 896 699 252 243 424 391 565 485 95 63 284
165 306 165 7 0 -2 -74 -24 -210 -31 -187 -35 -236 -17 -218 3 3 23 104 43
224 43 252 25 226 183 269 209 56 425 56 648 -1 190 -48 342 -127 581 -305
366 -272 577 -382 848 -439 113 -24 402 -37 524 -23 l76 9 17 -29 c9 -15 38
-56 65 -90 62 -82 80 -118 80 -162 0 -24 4 -35 15 -35 8 0 15 3 15 8 1 21 59
343 64 350 3 6 22 13 42 16 121 23 429 137 656 242 168 78 239 114 515 266
l161 88 27 -24 c87 -81 267 -51 386 64 64 63 88 117 89 196 l0 61 410 258
c226 141 410 259 410 262 0 2 -3 2 -7 0 -23 -13 -576 -355 -681 -420 -68 -43
-128 -77 -133 -77 -5 0 -9 8 -9 18 0 9 -11 123 -25 252 -14 129 -25 236 -25
238 0 1 114 77 253 168 138 91 257 171 262 176 15 16 5 10 -265 -164 -134 -86
-246 -155 -248 -153 -6 6 -51 432 -51 480 -1 40 0 40 112 115 61 41 117 76
124 78 6 2 17 -6 23 -18 33 -62 144 -79 237 -35 73 33 147 106 183 178 25 49
30 73 30 128 l0 69 153 101 c83 56 213 145 287 197 280 198 914 681 905 690
-3 3 -31 -15 -63 -40 -587 -455 -1274 -950 -1293 -931 -5 5 -43 101 -83 214
-41 112 -77 211 -80 219 -5 11 15 30 68 67 71 50 76 51 112 41 77 -21 184 23
267 108 42 43 97 145 97 180 0 16 21 38 75 79 41 32 75 59 75 61 0 12 -23 -1
-74 -41 -65 -50 -76 -54 -76 -25 0 10 -5 31 -12 45 l-11 25 -149 0 -148 0 -45
-41 c-54 -50 -106 -151 -113 -219 -3 -37 1 -60 18 -94 12 -25 26 -46 31 -46
23 0 4 -22 -57 -65 -36 -26 -67 -45 -68 -43 -1 1 -37 98 -78 213 -42 116 -79
217 -83 226 -4 10 6 24 32 42 21 15 31 27 22 27 -9 0 -24 -9 -34 -20 -10 -11
-21 -20 -25 -20 -4 0 -10 9 -13 20 -3 14 -14 20 -31 20 -26 0 -26 0 -12 -35z
m-454 -367 c0 -5 11 -26 25 -48 14 -22 25 -42 25 -44 0 -2 -18 -18 -40 -36
l-39 -31 -21 41 c-18 35 -19 44 -8 58 11 15 11 15 -2 5 -13 -10 -18 -8 -29 9
-12 19 -10 24 25 54 35 30 40 31 52 17 6 -9 12 -21 12 -25z m-775 -610 c-3
-13 -25 -147 -50 -298 -25 -151 -47 -275 -48 -276 -1 0 -30 -20 -64 -42 -60
-41 -64 -42 -145 -42 -46 0 -141 -3 -211 -7 -122 -6 -128 -7 -125 -27 3 -21 7
-21 168 -17 107 2 161 0 155 -7 -5 -5 -63 -41 -128 -81 -108 -66 -121 -71
-173 -71 l-56 0 4 -30 c5 -30 2 -32 -153 -116 -208 -112 -485 -241 -496 -231
-8 9 77 463 89 470 7 4 72 41 144 82 126 71 134 74 190 72 33 -1 80 4 106 12
83 24 157 105 158 173 1 19 42 51 213 166 117 78 257 176 312 216 55 41 103
75 108 75 4 1 5 -9 2 -21z m-3000 -165 c89 -89 123 -170 117 -280 -2 -37 -17
-44 -27 -13 -4 12 -33 56 -64 98 -32 42 -66 92 -75 111 -21 40 -34 141 -18
141 5 0 35 -26 67 -57z m-1255 -82 c0 -26 -3 -28 -116 -55 -63 -16 -117 -26
-119 -24 -3 2 -6 15 -7 28 -3 23 4 26 112 56 63 17 118 29 123 27 4 -2 7 -16
7 -32z m-268 -66 c5 -22 1 -26 -31 -35 -217 -57 -307 -80 -313 -80 -5 0 -8 13
-8 28 0 29 1 29 153 70 185 49 193 50 199 17z m-373 -120 c-2 -1 -73 -21 -157
-43 l-152 -40 -6 24 c-4 14 -5 27 -3 28 2 2 72 22 154 44 l150 39 9 -24 c4
-13 6 -26 5 -28z m665 29 c17 -44 10 -49 -96 -68 -140 -25 -142 -25 -146 1 -3
18 4 24 35 32 21 5 70 18 108 29 89 25 92 25 99 6z m3525 -18 c9 -11 -6 -25
-81 -71 -75 -47 -101 -58 -136 -58 -49 0 -67 12 -57 42 20 64 236 133 274 87z
m-3791 -61 c-3 -22 -15 -31 -86 -60 -46 -19 -119 -55 -163 -81 -44 -25 -82
-45 -84 -43 -4 5 -24 113 -21 116 4 4 330 92 344 92 9 1 12 -8 10 -24z m299
-121 c27 -162 27 -164 4 -164 -10 0 -59 -12 -107 -26 -49 -15 -98 -29 -108
-32 -11 -3 -17 -1 -13 4 3 5 -5 74 -19 153 -13 79 -21 147 -19 152 8 12 203
50 230 44 6 -1 20 -60 32 -131z m301 111 c95 -18 199 -53 287 -97 77 -39 235
-131 235 -138 0 -3 -20 -11 -44 -18 -25 -6 -61 -26 -80 -43 l-36 -31 -93 26
c-137 38 -217 48 -377 45 l-145 -3 -16 100 c-8 54 -19 119 -23 143 l-7 44 108
-6 c59 -4 146 -14 191 -22z m3171 9 c-13 -16 -62 -44 -76 -44 -4 0 12 14 37
30 51 34 58 36 39 14z m1605 -46 c8 -50 46 -429 46 -458 0 -27 -77 -79 -459
-315 -271 -167 -693 -402 -805 -449 l-38 -16 6 33 c8 43 -20 95 -64 119 -86
45 -257 -1 -310 -84 -7 -13 -23 -75 -35 -138 l-20 -115 -125 -42 c-153 -51
-170 -53 -170 -15 0 48 28 134 60 185 33 53 32 78 -2 37 -38 -46 -80 -148 -85
-209 l-6 -59 -109 -21 c-402 -77 -759 -36 -1073 120 -94 47 -260 154 -395 253
l-60 45 28 20 c15 11 37 36 47 55 11 20 22 35 25 33 3 -1 46 -23 96 -49 129
-66 204 -95 330 -128 116 -30 324 -55 412 -49 l52 4 0 -35 c0 -70 53 -110 148
-110 109 0 203 68 218 157 l6 41 72 18 c165 39 444 148 661 257 328 164 927
530 1385 846 80 55 148 100 152 101 4 0 9 -15 12 -32z m-5355 -75 c7 -43 14
-89 17 -103 4 -24 3 -25 -35 -22 -109 11 -226 -118 -177 -193 9 -13 16 -26 16
-28 0 -3 -38 -32 -85 -65 -47 -34 -85 -59 -85 -57 0 2 10 20 21 40 l22 37 -22
136 c-11 75 -21 146 -21 158 0 15 20 31 73 62 83 47 224 110 248 111 13 1 19
-16 28 -76z m-389 -20 c10 -58 9 -68 -5 -75 -27 -16 -209 -164 -234 -192 -14
-14 -28 -26 -31 -26 -10 0 -53 271 -45 279 6 6 269 78 291 80 7 1 17 -28 24
-66z m2710 -33 c401 -66 360 -55 360 -94 0 -18 -2 -35 -5 -38 -3 -3 -54 3
-113 13 -158 27 -149 30 -158 -43 -5 -35 -8 -67 -9 -73 0 -5 56 -19 125 -30
122 -20 125 -22 122 -45 -1 -14 -6 -28 -10 -32 -13 -13 -218 -56 -325 -69 -99
-11 -411 -9 -423 4 -5 5 60 419 72 455 3 9 13 12 31 8 16 -3 165 -28 333 -56z
m2042 8 c-5 -5 -25 -8 -43 -6 l-34 3 40 28 c39 27 40 27 43 6 2 -12 -1 -26 -6
-31z m-4724 -153 c16 -106 17 -101 -27 -97 -83 8 -181 -76 -181 -155 0 -66 58
-95 133 -67 23 8 49 16 57 16 8 1 40 20 70 43 105 80 151 107 170 102 42 -11
104 16 153 66 39 41 62 54 133 78 47 16 102 32 123 35 l37 6 23 -151 c12 -82
20 -155 16 -160 -3 -6 -13 -11 -21 -11 -29 0 -203 -78 -297 -134 -210 -123
-375 -264 -709 -602 -346 -351 -523 -506 -709 -623 l-67 -42 -41 22 c-99 51
-261 -26 -261 -124 0 -32 -14 -40 -107 -61 -118 -26 -132 -21 -92 35 11 16 15
29 9 29 -6 0 -23 -21 -38 -46 l-27 -45 -135 4 c-103 4 -152 10 -207 27 -40 13
-73 27 -73 31 0 5 73 10 162 11 151 3 163 4 166 22 4 18 -3 19 -193 13 l-197
-5 7 51 c4 29 10 55 14 59 3 4 93 10 199 14 186 7 192 8 192 28 0 18 13 25
106 48 126 33 296 104 413 173 167 100 290 203 517 431 165 166 224 220 235
213 42 -27 124 -1 180 57 33 34 34 38 34 116 l0 81 110 105 c61 58 97 96 80
85 -16 -12 -67 -56 -113 -98 -46 -43 -84 -76 -86 -74 -2 2 -17 85 -32 183
l-28 179 49 44 c94 83 228 184 235 176 4 -4 12 -44 18 -88z m4710 43 c-18
-109 7 -97 -203 -100 -102 -2 -185 -1 -185 2 1 3 54 38 118 77 l117 73 81 0
81 0 -9 -52z m-1418 1 c107 -18 199 -35 203 -39 13 -11 -338 -161 -434 -185
l-26 -6 19 118 c22 133 24 143 35 143 4 0 96 -14 203 -31z m-2170 -24 c41 -8
96 -22 122 -31 45 -15 48 -17 41 -42 -9 -36 -7 -62 8 -89 27 -51 131 -68 222
-37 l47 16 53 -33 c28 -19 112 -73 186 -121 74 -48 184 -113 245 -144 61 -31
113 -58 115 -60 1 -1 -2 -34 -9 -73 l-12 -71 -24 19 c-13 11 -47 22 -76 26
-41 6 -72 22 -157 80 -212 145 -346 210 -534 260 -176 46 -397 52 -556 15 -24
-6 -46 -8 -49 -6 -5 5 -30 148 -46 258 l-7 47 38 4 c69 9 317 -3 393 -18z
m2430 -31 c0 -13 -70 -429 -75 -441 -6 -17 -234 -89 -377 -118 -149 -30 -142
-29 -133 -7 3 9 17 85 31 167 13 83 27 162 29 176 5 21 16 29 63 43 87 27 292
111 369 150 66 34 93 43 93 30z m-1758 -109 c138 -69 282 -124 371 -140 25 -5
37 -13 37 -24 0 -18 -32 -214 -36 -220 -5 -5 -130 55 -198 96 -34 20 -137 86
-229 146 l-168 110 29 31 c17 17 33 41 37 54 3 12 7 22 8 22 1 0 68 -34 149
-75z m-6018 19 c8 -20 12 -16 -49 -39 -66 -23 -70 -28 -55 -64 15 -37 15 -37
81 -11 29 12 55 17 59 13 11 -13 63 -164 58 -168 -3 -3 -50 -27 -105 -54 -108
-53 -261 -143 -382 -224 -40 -27 -76 -45 -80 -40 -13 14 -144 373 -139 379 7
7 580 222 594 223 7 1 15 -6 18 -15z m8906 -14 c0 -5 -4 -10 -9 -10 -6 0 -13
5 -16 10 -3 6 1 10 9 10 9 0 16 -4 16 -10z m-4976 -225 c15 -97 26 -182 23
-189 -3 -8 -22 -14 -45 -14 -51 -1 -90 -21 -130 -67 -36 -40 -47 -73 -38 -109
5 -21 -16 -47 -156 -192 -261 -268 -421 -401 -623 -518 -154 -89 -354 -155
-513 -171 l-74 -7 31 42 c69 95 23 180 -97 180 -103 0 -202 -74 -202 -150 0
-34 -24 -33 -91 1 -156 78 -250 176 -455 474 -50 72 -100 144 -113 161 -16 22
-20 38 -16 57 7 25 12 19 83 -81 67 -94 170 -207 267 -295 17 -15 38 -36 48
-47 9 -11 28 -20 42 -20 13 0 60 -12 102 -27 72 -25 90 -27 233 -28 129 0 170
4 245 23 113 29 268 90 367 146 42 24 79 41 82 38 3 -3 6 -29 6 -57 l0 -52
-48 5 c-125 12 -241 -129 -167 -203 50 -50 172 -19 222 56 29 44 29 50 19 179
l-8 95 64 44 c34 24 98 73 141 109 l77 64 0 -30 c0 -43 32 -67 89 -67 61 1
117 29 153 79 29 40 29 41 23 141 -4 55 -9 108 -11 117 -3 11 44 71 142 180
157 175 285 308 294 308 4 0 19 -79 34 -175z m3272 -2 c-11 -65 -20 -119 -22
-121 -1 -2 -17 6 -35 17 -47 29 -129 28 -194 -3 -63 -29 -115 -86 -115 -126 0
-27 -3 -30 -32 -30 -54 0 -197 28 -290 56 -102 31 -97 20 -70 174 13 71 21 95
32 95 8 0 67 -4 131 -9 137 -10 301 4 464 38 61 13 119 24 130 25 l21 1 -20
-117z m2808 -50 c9 -93 20 -194 23 -226 l6 -57 -39 16 c-27 12 -57 15 -99 11
-175 -13 -341 -181 -321 -322 l5 -44 -137 -74 c-198 -109 -535 -274 -705 -346
-147 -62 -409 -153 -479 -166 -33 -6 -38 -5 -38 11 0 23 68 426 72 428 19 13
192 76 220 80 20 4 61 23 90 42 29 20 92 56 139 79 277 140 800 447 1114 654
66 44 123 80 126 80 3 1 14 -74 23 -166z m-4522 118 c196 -34 339 -97 573
-251 l139 -93 -50 -18 c-28 -11 -61 -30 -74 -44 l-23 -24 -37 19 c-128 65
-289 113 -444 131 -86 10 -102 15 -121 37 -18 21 -33 26 -81 30 -69 4 -116
-12 -160 -56 -20 -21 -52 -36 -105 -50 -202 -55 -451 -198 -674 -386 -98 -82
-157 -138 -425 -396 -301 -291 -363 -348 -490 -444 -188 -142 -397 -255 -565
-304 -84 -25 -155 -37 -155 -27 0 10 39 244 45 273 5 22 6 22 37 6 40 -21 121
-15 174 13 47 24 84 75 84 117 0 28 8 36 73 75 195 119 349 256 736 652 410
419 603 567 878 673 106 41 123 43 123 17 0 -16 -7 -19 -45 -19 -120 0 -221
-137 -153 -209 42 -45 145 -21 202 47 35 42 40 69 27 142 -6 34 -7 66 -3 70 4
4 43 14 87 22 117 21 292 20 427 -3z m-4756 -11 c144 -18 274 -73 395 -166 72
-55 187 -179 246 -266 39 -57 44 -70 36 -94 l-9 -27 -45 53 c-99 118 -282 234
-434 276 -38 11 -115 18 -211 21 l-151 5 11 29 c9 24 7 41 -12 92 -12 34 -22
68 -22 75 0 15 83 16 196 2z m-207 -31 c15 -42 14 -49 -5 -49 -48 0 -108 -69
-106 -122 0 -16 -5 -31 -11 -33 -7 -2 -55 -17 -108 -34 -52 -17 -98 -31 -102
-31 -4 0 -7 9 -7 19 0 11 -13 55 -30 98 -16 42 -30 81 -30 85 0 9 178 66 260
83 109 22 126 20 139 -16z m2895 -149 l14 -164 -55 -61 c-126 -137 -401 -378
-444 -387 -10 -2 -19 66 -40 317 -15 176 -24 323 -21 327 11 10 527 146 529
139 2 -3 9 -80 17 -171z m-3286 9 l20 -57 -30 -6 c-46 -9 -98 -67 -98 -109 0
-34 -3 -37 -96 -87 -122 -65 -258 -150 -402 -251 -63 -43 -118 -79 -122 -79
-5 0 -10 10 -12 22 -2 12 -9 23 -15 26 -9 2 -13 -10 -13 -41 l0 -45 -164 -121
c-193 -141 -386 -275 -390 -270 -4 6 -27 201 -24 204 2 1 55 39 118 85 63 45
194 144 290 218 96 74 180 139 187 144 8 7 11 1 11 -21 -1 -41 18 -61 57 -61
39 0 90 43 101 84 4 15 1 46 -5 68 -7 22 -11 41 -9 42 24 20 206 136 281 180
116 68 280 146 288 137 3 -3 15 -31 27 -62z m7559 -56 c-3 -16 -17 -104 -33
-198 -15 -93 -28 -171 -29 -172 -1 -2 -19 6 -40 17 -76 39 -194 14 -266 -56
l-38 -37 -158 6 c-228 9 -422 56 -595 143 -129 65 -150 81 -144 112 3 15 11
58 17 95 9 56 14 68 28 64 9 -3 57 -17 106 -31 50 -15 137 -34 195 -43 82 -12
108 -20 119 -35 46 -66 197 -62 288 8 23 18 59 29 120 40 112 19 258 56 348
88 89 31 88 31 82 -1z m-6809 -9 c162 -33 304 -114 440 -251 64 -65 72 -78 72
-111 0 -67 -11 -69 -80 -14 -151 122 -331 182 -545 182 -306 0 -639 -125
-1083 -407 l-132 -85 -53 43 c-58 48 -86 79 -87 95 0 24 387 277 548 358 56
28 76 34 95 27 31 -12 77 8 108 48 30 38 171 90 264 98 33 2 69 8 80 13 40 17
52 18 173 19 76 1 152 -5 200 -15z m4773 -60 c113 -19 228 -55 316 -96 56 -27
64 -34 57 -52 -4 -12 -7 -38 -8 -60 0 -87 116 -129 235 -85 24 9 39 1 155 -81
296 -211 506 -307 769 -352 158 -27 449 -22 624 11 63 12 121 19 129 16 16 -6
14 -24 -13 -125 -19 -72 -16 -143 11 -210 9 -23 14 -43 12 -46 -3 -2 -61 -9
-130 -14 -286 -22 -589 34 -826 153 -117 59 -197 111 -415 271 -100 73 -208
149 -240 169 -336 215 -741 274 -1097 161 -45 -14 -84 -23 -87 -20 -3 3 -1 22
4 43 l9 38 159 6 c88 4 168 7 178 8 9 0 17 8 17 18 0 15 -16 16 -175 10 l-175
-7 6 42 c4 24 9 46 13 50 4 4 84 11 179 14 134 6 172 10 172 21 0 10 -18 13
-72 13 l-73 0 37 30 c21 17 39 43 43 60 6 28 10 30 49 30 23 0 85 -7 137 -16z
m-486 -56 c-8 -48 -18 -58 -57 -58 -18 0 -28 -5 -28 -15 0 -11 11 -15 35 -15
36 0 36 0 30 -37 -10 -60 -12 -63 -50 -63 -24 0 -35 -4 -35 -15 0 -11 11 -15
36 -15 29 0 34 -3 31 -17 -3 -10 -8 -34 -11 -53 -6 -33 -12 -38 -108 -85 -237
-116 -428 -265 -858 -669 -124 -117 -247 -232 -275 -257 -243 -221 -540 -403
-775 -477 -101 -32 -258 -62 -322 -62 -46 0 -45 -7 -16 167 l22 132 54 12
c160 33 405 139 567 246 161 106 295 223 600 523 165 162 336 327 380 365 230
202 435 329 648 400 137 46 141 46 132 -7z m-1726 -110 c1 -26 -1 -27 -26 -17
-15 5 -38 8 -50 4 -33 -8 -29 3 20 53 l42 43 6 -28 c4 -15 7 -40 8 -55z
m-2470 -8 c135 -27 271 -96 372 -187 32 -29 35 -36 30 -70 -6 -35 -9 -38 -44
-41 -27 -2 -63 7 -120 31 -148 63 -304 85 -472 66 -61 -7 -134 -12 -164 -11
-57 3 -142 -20 -161 -43 -6 -7 -48 -28 -93 -45 -134 -53 -373 -173 -512 -258
l-129 -79 -22 47 c-12 26 -38 66 -58 88 l-36 40 107 69 c346 224 624 348 898
398 108 20 294 18 404 -5z m-2764 -141 c4 -11 4 -23 1 -26 -3 -3 -60 -18 -126
-33 -127 -29 -137 -27 -128 17 2 14 26 22 108 39 134 28 137 28 145 3z m-905
-2 c0 -8 9 -22 20 -32 26 -23 93 -15 125 15 21 20 26 21 66 9 29 -9 61 -31 94
-64 51 -51 66 -82 80 -175 l8 -45 -47 43 c-60 55 -113 79 -207 92 -84 12 -218
1 -344 -29 -44 -11 -82 -18 -84 -15 -5 4 17 143 24 155 5 8 171 49 199 49 10
0 16 -9 16 -25 0 -23 -2 -24 -43 -19 -84 12 -150 -55 -97 -98 27 -22 52 -23
96 -2 33 16 54 57 54 106 0 27 11 48 26 48 8 0 14 -6 14 -13z m4258 -192 c191
-285 285 -382 444 -458 99 -47 111 -70 40 -75 -34 -3 -42 -7 -42 -23 0 -15 7
-19 39 -19 l38 0 -9 -52 c-5 -29 -11 -55 -14 -57 -8 -8 -137 106 -190 168 -30
36 -122 165 -204 286 -82 121 -173 248 -203 282 -55 62 -59 75 -41 132 6 19 3
23 142 -184z m-4548 98 c-4 -21 -11 -55 -14 -76 -6 -34 -9 -36 -28 -26 -38 21
-128 -18 -128 -56 0 -6 -37 -26 -82 -44 -46 -19 -175 -78 -287 -132 -112 -55
-206 -99 -207 -99 -2 0 -4 9 -4 20 0 12 -9 38 -20 60 l-20 38 38 22 c83 50
324 171 427 216 127 55 317 124 326 118 4 -2 3 -21 -1 -41z m4039 0 c41 -8 99
-24 130 -36 56 -22 56 -22 21 -24 -191 -14 -200 -15 -200 -29 0 -13 24 -15
153 -13 191 2 210 -6 191 -78 -6 -21 -8 -21 -317 -26 -342 -5 -374 -9 -581
-78 -53 -17 -98 -30 -100 -28 -4 4 14 121 19 127 2 2 17 -4 34 -12 126 -65
327 73 252 174 l-21 29 53 5 c28 3 66 8 82 10 50 6 205 -5 284 -21z m376 -61
c-33 -4 -39 1 -30 28 l7 22 25 -24 25 -23 -27 -3z m-811 22 c9 -3 16 -14 16
-24 0 -56 -193 -119 -230 -75 -38 46 140 128 214 99z m7777 -65 c-3 -3 -25
-13 -48 -22 l-43 -17 0 29 c0 56 6 60 54 37 24 -12 41 -24 37 -27z m-10882 17
c114 -31 181 -108 181 -209 l0 -57 -44 33 c-25 17 -45 39 -45 48 -2 44 -73 68
-134 46 -24 -9 -93 -18 -162 -21 -246 -11 -469 -85 -962 -318 -159 -75 -196
-89 -204 -77 -15 24 -10 37 22 60 17 12 47 46 66 76 34 53 38 56 216 143 252
123 386 176 409 161 44 -27 133 0 144 44 5 21 18 26 112 49 142 33 143 33 252
35 55 0 118 -5 149 -13z m2848 7 c-3 -5 -12 -51 -21 -103 -27 -157 -23 -149
-69 -167 -86 -35 -297 -143 -421 -217 -70 -42 -131 -76 -134 -76 -18 0 -37 99
-32 165 l5 69 130 78 c227 136 569 294 542 251z m1197 -113 c24 -36 92 -139
151 -230 86 -132 129 -186 211 -267 88 -88 100 -103 79 -103 -18 0 -25 -5 -25
-20 0 -17 7 -20 41 -20 40 0 40 -1 35 -30 -20 -101 -16 -93 -38 -73 -36 32
-153 195 -243 338 -126 201 -202 299 -300 394 -93 89 -101 111 -40 111 21 0
35 5 35 13 0 15 37 -29 94 -113z m-82 -37 c98 -96 162 -180 263 -348 105 -174
163 -260 230 -338 56 -67 63 -87 46 -147 -7 -24 -9 -22 -47 35 -22 33 -76 118
-119 189 -89 147 -164 253 -233 333 -49 57 -173 158 -230 187 -27 14 -33 22
-28 39 3 12 6 28 6 35 0 7 15 12 41 12 33 0 40 3 37 18 -3 13 -12 16 -36 14
-29 -3 -32 -1 -32 22 0 14 5 26 11 26 6 0 47 -35 91 -77z m6752 -124 c-15 -90
-29 -166 -30 -168 -5 -6 -171 147 -193 178 -11 15 -22 38 -26 52 -6 23 -2 26
44 38 28 7 90 25 138 41 48 15 89 27 91 25 1 -1 -10 -76 -24 -166z m-8734 100
c0 -7 -45 -39 -55 -39 -5 0 -16 23 -29 68 l-7 22 45 -22 c25 -12 46 -25 46
-29z m1840 11 c0 -5 -2 -10 -4 -10 -3 0 -8 5 -11 10 -3 6 -1 10 4 10 6 0 11
-4 11 -10z m-3929 -28 c-5 -10 -15 -48 -21 -85 l-12 -66 -56 -6 c-231 -24
-397 -67 -638 -165 -53 -22 -101 -37 -105 -34 -5 3 -9 13 -9 22 0 9 -5 34 -11
56 -15 55 -33 33 -20 -25 17 -74 17 -73 -73 -112 -82 -34 -85 -35 -127 -21
-24 9 -69 14 -103 13 -38 -2 -61 2 -64 9 -4 12 225 130 408 209 302 131 613
219 783 222 53 1 57 -1 48 -17z m2162 -36 c25 -24 53 -58 62 -77 17 -32 17
-33 -5 -51 -12 -10 -25 -18 -29 -18 -4 0 -41 31 -81 70 l-75 69 35 26 c18 14
37 25 41 25 4 0 27 -20 52 -44z m-1917 -29 c27 -25 39 -45 44 -78 4 -24 11
-64 15 -89 l8 -44 -39 31 c-66 52 -114 69 -241 88 -36 6 -43 11 -43 28 0 33
13 48 30 37 38 -24 137 0 162 39 17 28 22 27 64 -12z m61 -34 c-3 -10 -5 -2
-5 17 0 19 2 27 5 18 2 -10 2 -26 0 -35z m-1492 7 c3 -10 -1 -32 -9 -48 -15
-30 -99 -112 -115 -112 -21 0 -29 86 -11 121 13 23 76 58 107 59 13 0 24 -8
28 -20z m11810 -112 c72 -100 109 -158 104 -162 -2 -2 -28 -9 -57 -14 -49 -9
-54 -8 -72 15 -46 59 -71 175 -53 243 6 22 7 23 17 6 6 -10 34 -50 61 -88z
m-8495 -19 c0 -11 -93 -68 -102 -63 -4 3 -8 32 -8 64 l0 60 55 -27 c30 -15 55
-30 55 -34z m122 21 c4 -46 0 -49 -25 -14 -18 25 -18 26 0 39 10 8 19 15 19
15 1 0 4 -18 6 -40z m-2292 14 c0 -8 -5 -46 -11 -84 -13 -79 -3 -73 -143 -86
-92 -8 -273 -53 -418 -103 -65 -23 -120 -41 -122 -41 -3 0 9 14 26 30 34 34
33 50 -5 68 -20 10 -36 10 -63 3 -21 -6 -41 -8 -46 -5 -30 19 12 40 217 110
276 95 565 150 565 108z m173 1 c60 -16 119 -48 151 -83 15 -17 45 -140 46
-189 0 -7 -24 5 -52 27 -61 47 -142 75 -245 85 -82 8 -79 2 -62 106 l12 69 46
0 c26 0 72 -7 104 -15z m2046 -59 c40 -21 88 -79 96 -116 4 -17 5 -33 3 -34
-24 -20 -220 -146 -227 -146 -11 0 -26 214 -16 229 6 10 105 81 113 81 2 0 16
-7 31 -14z m2556 -106 c3 -5 -1 -10 -10 -10 -9 0 -13 5 -10 10 3 6 8 10 10 10
2 0 7 -4 10 -10z m-6025 -30 c9 -17 4 -22 -37 -46 -27 -15 -69 -40 -96 -56
-60 -35 -64 -35 -35 2 23 30 136 120 150 120 4 0 12 -9 18 -20z m449 -67 c17
-86 16 -90 -33 -112 -82 -36 -86 -36 -80 -4 4 20 -2 39 -21 67 -14 21 -24 40
-22 42 5 5 131 63 138 64 3 0 11 -26 18 -57z m11585 49 c12 -19 16 -88 7 -102
-9 -12 -19 -6 -61 35 -27 27 -50 52 -50 56 0 15 96 24 104 11z m-12014 -30 c0
-4 -16 -16 -36 -27 -19 -10 -47 -33 -61 -49 -21 -25 -24 -38 -20 -73 4 -42 4
-43 -41 -68 l-46 -26 -18 23 c-12 15 -17 37 -16 62 3 38 5 40 113 102 112 64
125 70 125 56z m526 -7 c6 -15 -43 -91 -53 -81 -12 12 -20 75 -10 85 16 16 57
13 63 -4z m-411 -70 c-21 -17 -37 -15 -43 3 -2 8 8 12 30 12 31 -1 32 -1 13
-15z m-71 -12 c7 -18 -2 -25 -66 -55 -29 -13 -38 -14 -38 -4 0 14 33 47 65 64
27 15 32 15 39 -5z m163 -2 c54 -33 57 -100 6 -119 -16 -5 -36 -13 -45 -17
-13 -5 -23 6 -47 54 l-31 61 37 19 c47 25 42 25 80 2z m-115 -101 l26 -58 -48
-21 c-27 -12 -68 -21 -91 -21 -45 0 -159 28 -159 39 0 4 20 17 45 29 40 19 48
20 77 8 49 -20 88 -28 88 -18 0 5 -18 16 -40 25 -22 8 -40 19 -40 24 0 10 79
50 100 52 9 0 26 -23 42 -59z m5963 26 c91 -32 195 -48 292 -44 l78 3 -2 -86
c-1 -47 -7 -98 -13 -113 -5 -15 -10 -39 -10 -53 0 -25 -1 -25 -57 -18 -130 15
-263 68 -358 142 -57 44 -63 63 -45 149 9 45 15 55 28 51 10 -3 49 -17 87 -31z
m601 -151 c-14 -81 -26 -149 -28 -150 -2 -1 -15 -5 -29 -8 -55 -14 -158 110
-159 190 0 65 12 79 85 93 37 7 85 18 108 25 23 7 43 9 45 5 2 -4 -8 -74 -22
-155z m-5019 18 c-3 -10 -5 -2 -5 17 0 19 2 27 5 18 2 -10 2 -26 0 -35z m4352
-61 c89 -67 200 -112 331 -133 66 -10 80 -19 80 -54 0 -29 53 -132 96 -189
l38 -48 -65 7 c-202 23 -369 114 -505 273 -68 80 -67 76 -48 170 5 25 7 25 73
-26z m470 -78 c12 -19 21 -37 21 -40 0 -2 -14 -4 -31 -4 -28 0 -31 3 -25 23 3
12 6 30 6 40 0 25 5 21 29 -19z m165 -69 c-5 -12 -10 -13 -20 -4 -19 15 -18
19 6 19 13 0 18 -5 14 -15z m-100 -26 c15 -17 34 -45 42 -61 19 -36 31 -128
17 -128 -18 0 -114 109 -133 152 -27 60 -26 68 14 68 26 0 41 -7 60 -31z"/>
<path d="M14279 10363 c-13 -16 -12 -17 4 -4 9 7 17 15 17 17 0 8 -8 3 -21
-13z"/>
<path d="M4941 8346 c-18 -19 -61 -47 -95 -62 -51 -24 -74 -29 -144 -29 -80 0
-82 -1 -50 -14 45 -18 152 -10 203 17 45 23 144 122 122 122 -2 0 -18 -15 -36
-34z"/>
<path d="M16850 10790 c0 -5 11 -39 25 -76 14 -36 25 -67 25 -68 0 -1 -26 -1
-57 -2 -140 -1 -279 -120 -318 -272 -17 -66 -10 -129 19 -161 9 -10 16 -20 16
-23 0 -17 -640 -467 -989 -696 -130 -85 -240 -159 -246 -165 -15 -15 -2 -7
260 161 273 175 467 308 773 530 l214 154 44 -12 c150 -42 349 113 379 295 6
38 15 47 147 145 173 130 170 128 198 100 102 -102 303 -72 470 70 l35 29
-282 1 -282 0 11 -31 c6 -17 7 -34 2 -38 -5 -5 -73 -56 -152 -115 -119 -90
-143 -104 -148 -89 -4 10 -21 56 -39 103 -18 47 -39 104 -46 128 -10 34 -17
42 -36 42 -12 0 -23 -4 -23 -10z"/>
<path d="M18055 10597 c-272 -189 -444 -312 -890 -633 -533 -385 -927 -652
-1382 -937 -139 -87 -253 -161 -253 -164 0 -3 11 2 25 11 14 9 130 81 258 160
492 303 716 454 1477 1001 528 380 791 565 955 674 126 84 135 91 115 91 -8 0
-146 -92 -305 -203z"/>
<path d="M14115 10244 l-30 -26 33 22 c17 12 32 23 32 26 0 7 -4 5 -35 -22z"/>
<path d="M14645 10044 l-30 -26 33 22 c17 12 32 23 32 26 0 7 -4 5 -35 -22z"/>
<path d="M14503 9949 c-24 -17 -43 -32 -43 -35 0 -3 20 9 45 26 25 17 45 33
45 35 0 7 -2 6 -47 -26z"/>
<path d="M15243 9279 c-35 -22 -46 -37 -15 -20 22 13 58 40 52 41 -3 0 -20
-10 -37 -21z"/>
<path d="M15095 9184 c-51 -34 -69 -52 -29 -29 35 20 82 54 74 55 -3 0 -23
-12 -45 -26z"/>
<path d="M15494 8844 c-18 -14 -18 -15 4 -4 12 6 22 13 22 15 0 8 -5 6 -26
-11z"/>
<path d="M15433 8809 c-35 -22 -46 -37 -15 -20 22 13 58 40 52 41 -3 0 -20
-10 -37 -21z"/>
<path d="M2720 7410 c-8 -5 -10 -10 -5 -10 6 0 17 5 25 10 8 5 11 10 5 10 -5
0 -17 -5 -25 -10z"/>
<path d="M2720 7190 c-8 -5 -10 -10 -5 -10 6 0 17 5 25 10 8 5 11 10 5 10 -5
0 -17 -5 -25 -10z"/>
<path d="M2780 6990 c-8 -5 -10 -10 -5 -10 6 0 17 5 25 10 8 5 11 10 5 10 -5
0 -17 -5 -25 -10z"/>
<path d="M2860 6795 c-14 -8 -20 -14 -15 -14 6 0 21 6 35 14 14 8 21 14 15 14
-5 0 -21 -6 -35 -14z"/>
<path d="M2880 6570 c-8 -5 -10 -10 -5 -10 6 0 17 5 25 10 8 5 11 10 5 10 -5
0 -17 -5 -25 -10z"/>
<path d="M3895 5108 c-253 -107 -265 -111 -455 -149 -438 -89 -842 -202 -1285
-359 -938 -333 -1479 -638 -1895 -1066 -104 -107 -260 -298 -260 -318 0 -18
22 4 77 79 146 195 322 368 551 540 69 52 127 93 129 92 1 -2 -2 -19 -7 -38
-6 -18 -10 -70 -10 -114 1 -198 86 -413 254 -640 14 -19 9 -26 -88 -127 -57
-58 -133 -142 -168 -186 -86 -106 -183 -250 -175 -259 8 -8 3 -14 65 79 79
118 200 264 302 363 l92 90 66 -71 c37 -39 110 -105 164 -147 53 -42 109 -93
125 -113 32 -43 32 -50 9 -249 -9 -71 -16 -148 -16 -171 0 -34 -9 -53 -48
-105 -98 -130 -197 -287 -187 -297 7 -7 4 -10 65 88 28 47 75 116 103 155 l52
69 7 -159 c7 -185 34 -333 80 -445 118 -286 376 -490 696 -551 38 -7 115 -10
197 -7 74 2 135 3 135 1 0 -3 -20 -37 -44 -77 -59 -98 -128 -235 -124 -248 2
-6 25 31 52 83 26 52 70 131 98 175 l49 82 88 31 c132 47 255 135 353 250 l37
43 135 -97 c238 -172 341 -283 387 -416 42 -126 5 -268 -98 -373 -67 -67 -137
-106 -193 -106 -71 0 -81 13 -41 52 117 114 84 316 -63 384 -128 60 -278 7
-330 -116 -36 -89 -26 -204 28 -288 137 -217 441 -205 657 26 108 114 157 236
146 359 -15 157 -112 289 -342 467 -186 144 -225 178 -225 199 0 11 14 62 30
114 17 51 30 101 30 111 0 20 131 127 318 260 410 293 1156 694 1721 926 62
26 115 46 117 44 2 -2 -40 -58 -93 -123 -140 -176 -369 -475 -451 -591 -279
-393 -452 -763 -519 -1109 -23 -122 -23 -363 0 -458 56 -226 209 -357 468
-400 l73 -12 17 -65 c9 -36 22 -78 28 -93 18 -46 75 -127 89 -127 8 0 5 11
-11 33 -36 48 -73 126 -90 189 l-14 55 136 6 c75 3 196 15 269 27 74 12 135
20 138 18 2 -2 0 -29 -5 -60 -16 -96 -25 -268 -14 -268 6 0 13 41 17 93 11
145 27 245 41 251 7 2 33 7 57 11 l45 7 204 -181 c179 -158 208 -181 238 -181
28 0 31 2 22 14 -13 16 16 147 66 301 33 101 31 99 53 80 21 -19 10 -30 162
174 l63 83 125 55 c69 30 228 104 354 164 126 60 231 107 233 106 2 -2 -22
-50 -53 -108 -94 -175 -228 -448 -279 -570 l-49 -116 -100 -43 c-56 -24 -157
-65 -226 -91 -99 -38 -118 -48 -90 -49 29 0 187 58 363 134 20 9 37 13 37 10
0 -4 -11 -37 -25 -75 -13 -38 -21 -69 -16 -69 5 0 21 36 36 79 l28 79 311 155
c171 86 385 197 475 247 90 50 166 89 169 86 5 -5 152 -515 152 -528 0 -3 -41
-30 -91 -59 -51 -29 -87 -55 -80 -57 6 -2 48 18 92 44 88 51 93 51 105 -13 5
-26 11 -33 30 -33 13 0 24 1 24 3 0 2 -7 27 -15 55 -9 29 -14 56 -11 61 3 5
38 28 78 51 125 74 335 208 521 331 97 66 181 119 185 119 4 0 16 -24 26 -52
10 -29 20 -58 23 -64 3 -7 -19 -13 -59 -16 -76 -6 -114 -25 -181 -87 -124
-115 -143 -291 -38 -346 133 -68 351 89 369 267 4 40 -4 71 -48 188 -29 77
-51 142 -49 144 2 1 99 70 214 151 116 82 293 208 395 280 102 72 262 184 357
248 l172 117 37 -25 c123 -83 334 45 334 204 l0 49 78 45 c42 24 139 77 215
117 134 70 139 72 158 54 12 -10 41 -19 74 -22 48 -4 65 0 121 28 66 32 118
87 130 137 6 24 36 38 209 95 99 32 307 89 312 85 1 -2 12 -68 24 -147 19
-131 19 -145 5 -156 -9 -6 -27 -9 -40 -7 -42 8 -130 -24 -177 -65 -24 -22
-116 -75 -204 -120 -403 -204 -772 -449 -1320 -877 -589 -460 -713 -555 -903
-692 -112 -81 -200 -149 -194 -151 21 -7 433 299 962 714 556 436 896 675
1234 868 149 86 347 188 353 182 3 -2 0 -13 -6 -24 -26 -49 -5 -124 40 -148
41 -21 122 -18 174 7 58 27 132 109 141 155 3 19 3 63 0 97 l-7 63 148 47
c322 102 657 157 953 157 162 0 173 -3 231 -79 l51 -66 -114 -12 c-62 -7 -171
-25 -243 -40 -151 -31 -175 -32 -235 -8 -123 47 -314 -24 -369 -138 -18 -37
-30 -46 -88 -71 -184 -79 -461 -228 -667 -358 -288 -183 -665 -473 -1066 -818
-41 -36 -68 -51 -108 -59 -95 -20 -100 -17 -54 33 51 55 67 109 50 162 -30 90
-150 115 -283 60 -37 -16 -120 -88 -138 -120 -6 -12 -14 -64 -17 -116 l-5 -95
-52 -8 c-47 -8 -53 -11 -53 -33 0 -23 2 -24 53 -18 l52 6 -3 -75 c-4 -83 -1
-79 -75 -92 -32 -5 -38 -10 -35 -28 3 -23 17 -26 76 -14 l32 7 0 -44 c0 -37
-5 -48 -31 -70 -17 -14 -24 -26 -17 -26 8 0 20 6 27 13 11 9 14 9 18 0 3 -7
13 -13 23 -13 14 0 20 9 22 31 2 24 17 44 61 83 l59 50 206 36 c192 33 207 37
204 55 -2 11 -6 22 -8 24 -2 2 -72 -8 -156 -22 -83 -15 -153 -25 -155 -23 -5
5 187 170 212 183 11 6 41 14 68 17 37 6 47 11 47 26 0 11 -7 23 -16 28 -12 6
29 45 183 174 594 496 1014 780 1456 984 136 64 157 71 157 57 0 -5 -56 -311
-124 -681 -101 -551 -120 -675 -109 -679 8 -3 18 -2 23 3 4 5 58 288 120 629
61 341 113 625 115 632 3 8 19 4 52 -15 92 -51 252 -28 346 49 66 54 96 145
66 201 -8 16 -8 22 2 29 27 16 265 55 455 73 l52 5 112 -151 c62 -83 166 -205
231 -272 65 -66 119 -123 119 -126 0 -3 -54 -95 -120 -205 -66 -110 -120 -205
-120 -211 0 -10 609 -314 629 -314 5 0 61 87 125 194 l116 195 62 -18 c35 -10
106 -34 158 -54 52 -19 124 -43 160 -52 36 -9 119 -34 185 -54 66 -21 147 -44
180 -51 33 -6 103 -25 155 -40 52 -16 131 -36 176 -44 44 -8 114 -24 155 -36
157 -43 245 -54 454 -53 159 0 225 5 320 22 241 43 442 102 667 197 60 26 110
45 112 43 1 -2 31 -113 67 -247 35 -134 67 -249 71 -255 25 -40 11 33 -48 257
-37 141 -65 258 -63 259 2 2 65 36 139 76 415 225 785 529 1124 926 38 44 72
84 76 88 6 7 151 -92 344 -234 108 -81 167 -121 170 -118 10 10 436 742 436
748 0 3 -73 58 -162 121 -89 63 -194 139 -234 168 l-72 52 67 143 c38 78 96
212 130 297 34 85 71 164 81 175 26 28 41 72 39 114 -1 20 12 84 30 143 36
125 85 325 101 419 l12 67 25 -13 c59 -31 132 44 133 135 l0 44 -213 213 -212
213 -235 -286 c-129 -158 -239 -294 -244 -303 -7 -12 4 -27 49 -68 l59 -54
-25 -77 -25 -77 -43 3 c-24 2 -63 13 -88 24 -64 28 -139 22 -221 -20 -35 -18
-78 -32 -97 -32 -19 0 -35 -4 -35 -9 0 -4 91 -41 203 -81 111 -41 204 -75 206
-76 11 -9 -132 -313 -232 -493 -127 -230 -358 -563 -489 -704 -50 -54 -65 -62
-267 -152 -118 -53 -217 -98 -222 -100 -4 -3 3 -45 17 -93 13 -48 24 -94 24
-103 0 -10 -53 -60 -117 -113 -268 -219 -589 -431 -653 -431 -27 0 -35 -4 -34
-18 1 -11 -12 -25 -37 -37 -47 -25 -49 -25 -49 0 0 13 -7 20 -20 20 -16 0 -20
-7 -20 -34 0 -32 -2 -34 -107 -83 -214 -100 -506 -205 -521 -188 -8 9 -202
622 -202 637 0 7 410 221 415 216 2 -1 30 -88 63 -193 l60 -190 -39 -6 c-73
-10 -134 -74 -134 -140 0 -29 6 -45 20 -55 27 -20 85 -17 119 6 33 21 76 85
76 114 0 15 -168 565 -175 574 -7 8 -455 -224 -455 -235 0 -7 52 -176 115
-376 63 -199 111 -365 107 -369 -12 -12 -253 -67 -382 -87 -156 -25 -311 -41
-400 -41 -65 0 -71 2 -122 41 -29 23 -127 118 -218 212 -367 380 -455 464
-535 516 -98 64 -196 111 -300 144 -44 14 -118 46 -165 70 -47 25 -123 59
-170 75 -47 16 -113 46 -147 66 -33 21 -109 57 -167 81 -59 23 -125 55 -147
69 -35 24 -38 29 -28 48 7 12 40 50 74 84 88 86 101 127 98 308 -2 107 1 147
12 169 17 35 19 47 6 47 -6 0 -114 -112 -241 -250 l-232 -249 -56 36 c-146 93
-337 170 -557 224 -137 33 -364 69 -443 69 -63 0 -64 2 -81 145 -13 110 -20
145 -30 145 -26 2 -1398 -195 -1405 -201 -7 -6 12 -179 30 -270 5 -25 1 -27
-88 -59 -205 -72 -505 -198 -660 -276 -38 -19 -75 -33 -82 -31 -6 3 -40 89
-75 191 -35 102 -65 186 -68 186 -4 0 -856 -479 -900 -507 -13 -7 -23 -19 -23
-26 0 -8 29 -93 65 -191 36 -98 65 -180 63 -181 -7 -7 -370 -217 -543 -315
-263 -148 -575 -313 -581 -307 -3 2 34 76 82 163 316 581 444 907 490 1249 36
267 -16 486 -150 632 -56 62 -176 144 -248 170 -46 16 -52 22 -77 78 -55 120
-173 233 -315 301 -67 32 -71 36 -101 101 -59 126 -155 221 -309 304 -70 38
-74 42 -95 97 -26 72 -106 178 -174 233 -29 23 -86 61 -128 86 -73 42 -78 47
-98 102 -85 232 -358 417 -718 485 -198 37 -629 53 -890 33 l-101 -8 -12 58
c-19 102 6 104 -285 -19z m940 -38 c251 -19 506 -72 649 -135 166 -73 307
-200 375 -335 23 -46 40 -84 39 -85 -2 -2 -41 10 -88 25 -47 15 -130 35 -185
45 -54 10 -113 26 -130 36 -47 27 -113 33 -186 16 -37 -9 -139 -18 -244 -21
-197 -7 -382 -24 -603 -57 -79 -12 -144 -20 -146 -18 -4 6 -106 440 -113 482
l-6 37 49 1 c27 1 96 5 154 9 165 11 284 11 435 0z m-621 -307 c25 -105 47
-202 49 -214 2 -20 -5 -23 -68 -36 -274 -55 -657 -155 -875 -227 -41 -14 -76
-23 -79 -21 -2 3 -18 64 -36 137 l-33 133 66 31 c37 17 162 72 277 122 116 50
307 133 425 185 118 52 218 92 222 88 3 -3 27 -92 52 -198z m-725 177 c-9 -5
-104 -46 -210 -91 -107 -44 -197 -84 -201 -87 -4 -4 20 -117 52 -252 33 -135
60 -250 60 -256 0 -5 -62 -32 -137 -58 -525 -184 -1166 -475 -1496 -680 -15
-9 -22 -5 -44 24 -128 172 -436 392 -612 440 -41 11 -42 12 -23 26 97 68 438
242 654 335 477 204 1159 423 1723 554 244 57 259 60 234 45z m15488 -462 c79
-79 143 -146 143 -149 0 -6 -32 -19 -54 -23 -14 -2 -26 -50 -36 -140 -11 -100
-53 -298 -57 -271 -9 52 -15 64 -51 104 l-39 43 12 52 c19 82 27 146 18 146
-5 0 -15 -34 -22 -77 -7 -42 -15 -83 -18 -90 -4 -10 -49 29 -139 119 -74 73
-134 136 -134 141 0 8 223 286 230 287 3 0 69 -64 147 -142z m-13813 88 c-27
-24 -58 -61 -67 -83 -9 -22 -22 -105 -31 -202 -9 -90 -17 -166 -19 -167 -1 -2
-74 -17 -160 -34 -87 -17 -164 -33 -171 -36 -22 -8 -28 44 -16 120 9 55 35
125 78 209 2 4 -1 7 -7 7 -18 0 -70 -90 -91 -159 -11 -35 -20 -91 -20 -126 l0
-63 -102 -25 c-57 -14 -104 -24 -107 -22 -5 6 -131 528 -127 532 6 7 325 54
454 68 165 17 218 20 347 23 l90 2 -51 -44z m555 -22 c57 -13 123 -33 147 -43
36 -17 44 -25 51 -58 9 -46 9 -208 0 -244 l-7 -26 -242 -6 c-210 -5 -365 -18
-536 -43 -41 -6 -43 -5 -38 17 3 13 8 58 11 100 l6 76 47 -25 c93 -48 250 -15
340 71 63 60 89 146 61 199 -12 23 -17 24 160 -18z m-1390 -262 c28 -117 51
-216 51 -220 0 -5 -28 -6 -62 -4 -116 7 -237 -60 -311 -170 -35 -53 -40 -56
-129 -88 -51 -18 -180 -66 -286 -108 -106 -41 -194 -73 -197 -70 -6 5 -145
585 -145 603 0 22 512 172 818 239 204 45 196 43 203 37 4 -3 30 -102 58 -219z
m1685 146 c98 -58 202 -165 249 -257 20 -41 36 -75 35 -77 -2 -1 -52 10 -113
26 -60 16 -141 31 -180 35 l-70 7 0 154 c0 85 2 154 4 154 3 0 37 -19 75 -42z
m12648 -195 c43 -43 78 -84 78 -93 0 -17 -49 -216 -75 -304 l-17 -58 -54 53
c-29 29 -51 55 -49 59 13 21 62 231 53 228 -6 -2 -17 -29 -25 -58 -7 -30 -20
-79 -29 -109 l-15 -54 -50 49 c-47 46 -50 52 -45 87 7 42 -8 51 -18 11 -6 -22
-9 -24 -22 -13 -8 7 -14 18 -12 26 3 14 190 253 198 253 2 0 40 -35 82 -77z
m-15458 -30 c11 -36 145 -607 143 -609 -1 -1 -72 -33 -157 -70 -203 -89 -632
-303 -790 -394 -164 -94 -442 -280 -553 -369 -48 -39 -89 -71 -90 -71 -1 0 -3
50 -4 111 -5 216 -52 403 -148 588 -30 57 -54 106 -52 107 16 17 275 157 432
234 299 148 616 277 1130 462 87 32 83 31 89 11z m2694 -57 c19 -12 -59 -249
-131 -396 l-22 -45 -95 -17 c-157 -29 -327 -67 -468 -105 -73 -19 -135 -33
-138 -31 -4 5 43 524 50 544 4 11 174 37 356 54 105 9 430 7 448 -4z m270 -41
c57 -14 112 -29 122 -35 11 -6 25 -29 31 -53 12 -45 16 -248 4 -266 -4 -7 -53
-11 -133 -11 -70 0 -190 -7 -267 -15 -77 -8 -143 -15 -148 -15 -4 0 3 21 17
48 33 66 91 224 111 302 9 36 17 70 20 76 4 14 106 1 243 -31z m12692 -88 c0
-11 -14 -43 -30 -72 -25 -44 -30 -63 -29 -116 1 -40 -6 -84 -18 -117 l-18 -52
-53 53 -52 53 13 40 c8 21 29 98 46 169 18 72 35 136 37 144 6 20 104 -77 104
-102z m-13813 41 c-4 -18 -11 -98 -18 -178 -7 -80 -15 -148 -19 -153 -8 -10
-207 140 -244 184 -38 45 -62 97 -50 108 5 5 61 21 124 34 63 14 124 28 135
30 11 3 33 5 49 6 27 1 28 -1 23 -31z m1353 -39 c123 -66 224 -168 285 -288
23 -47 24 -53 8 -47 -40 16 -193 46 -268 52 l-80 6 0 122 c0 66 -3 136 -7 154
-4 17 -5 32 -2 32 4 0 32 -14 64 -31z m-1730 -43 c9 -28 8 -46 -5 -90 -22 -74
-21 -197 0 -261 10 -27 32 -75 51 -106 19 -31 34 -59 34 -62 0 -3 -30 -15 -67
-27 -219 -72 -681 -269 -974 -416 -83 -41 -152 -74 -154 -72 -10 11 -153 643
-147 649 12 11 530 209 547 209 3 0 5 -26 5 -57 0 -109 52 -158 165 -158 88 1
160 33 233 105 68 67 102 138 102 212 l0 57 43 11 c23 6 62 18 87 25 64 19 67
19 80 -19z m14220 24 c0 -5 -5 -10 -11 -10 -5 0 -7 5 -4 10 3 6 8 10 11 10 2
0 4 -4 4 -10z m-416 -79 l49 -50 -43 -123 c-23 -68 -44 -125 -45 -126 -5 -5
-125 40 -125 47 0 16 53 141 60 141 5 0 23 -12 40 -26 17 -15 33 -24 36 -21 3
2 -13 20 -35 39 l-40 34 21 67 c12 37 25 67 28 67 3 0 28 -22 54 -49z m-13644
-201 c77 -89 130 -165 130 -186 0 -7 -25 -21 -56 -31 l-57 -18 -41 46 c-67 74
-108 161 -114 240 -2 37 -2 80 2 94 l7 27 28 -43 c15 -24 61 -82 101 -129z
m13377 139 c28 -10 27 -11 -47 -45 -81 -38 -153 -53 -164 -36 -12 20 115 90
166 92 9 0 29 -5 45 -11z m386 -57 l47 -48 -31 -94 c-42 -126 -112 -304 -165
-418 -42 -91 -43 -92 -69 -80 -22 10 -30 8 -53 -8 -57 -42 -77 -124 -46 -189
l15 -33 -67 -113 c-71 -119 -161 -258 -226 -347 l-39 -53 -26 21 c-36 28 -60
25 -98 -13 -40 -40 -52 -95 -33 -152 l14 -40 -89 -102 c-49 -57 -92 -103 -96
-103 -4 0 -16 36 -28 79 l-21 80 74 85 c242 282 451 600 626 954 50 100 94
182 99 182 4 0 11 -4 14 -10 10 -17 43 -11 70 13 39 33 44 97 13 157 l-23 45
39 118 c21 64 42 117 45 117 4 0 28 -22 54 -48z m338 -101 c-22 -78 -42 -145
-45 -149 -4 -3 -29 16 -56 43 l-50 50 21 69 c15 50 24 65 32 57 28 -28 107 11
122 60 4 11 9 19 11 16 2 -2 -14 -68 -35 -146z m-595 116 c3 -8 -4 -36 -14
-63 -10 -27 -22 -57 -25 -66 -7 -19 3 -22 -146 34 -23 8 -23 9 20 43 77 61
152 84 165 52z m-17130 -96 c22 -10 57 -38 78 -62 41 -48 103 -166 112 -215 5
-27 2 -33 -38 -59 -23 -15 -89 -64 -146 -107 -56 -43 -106 -76 -111 -73 -18
10 -70 152 -86 234 -30 147 -5 248 69 282 51 23 71 23 122 0z m17511 -212
c-85 -239 -264 -639 -286 -639 -7 0 -23 11 -70 47 -3 2 6 11 18 20 42 29 64
121 42 178 -5 13 5 46 34 110 52 109 144 343 176 443 l23 73 54 -54 53 -53
-44 -125z m-12397 208 c0 -19 -41 -179 -50 -196 -6 -11 -11 -7 -23 15 -19 37
-55 70 -85 77 -59 14 -141 -45 -178 -130 -23 -53 -24 -168 -2 -211 12 -24 14
-34 5 -37 -7 -2 -79 -22 -162 -44 -82 -22 -224 -65 -315 -95 -91 -31 -168 -56
-172 -56 -4 0 21 37 56 83 93 120 265 378 320 480 27 49 54 90 60 93 31 11
287 32 409 33 107 1 137 -2 137 -12z m196 -12 c49 -9 114 -23 146 -31 55 -16
56 -17 68 -63 16 -57 24 -242 12 -259 -5 -8 -53 -16 -132 -22 -69 -5 -125 -8
-126 -7 -1 1 13 28 32 60 19 32 34 60 34 62 0 2 -8 9 -19 14 -16 9 -24 1 -64
-68 l-45 -78 -83 -11 c-45 -7 -84 -11 -85 -9 -2 1 32 63 76 137 65 112 76 137
65 149 -18 19 -29 9 -66 -57 -18 -31 -39 -66 -47 -77 -14 -19 -14 -19 -9 5 2
14 16 68 30 120 14 52 28 107 31 123 6 24 11 27 50 27 24 0 83 -7 132 -15z
m-786 -22 c-1 -35 -199 -346 -343 -540 -91 -121 -92 -122 -162 -149 -646 -251
-1428 -680 -1942 -1067 -78 -59 -145 -112 -148 -117 -15 -25 -22 -3 -28 83
-12 215 -134 409 -318 507 l-60 32 23 17 c22 17 206 135 281 180 22 14 37 18
37 11 0 -29 35 -82 68 -102 51 -31 141 -29 216 5 72 33 159 116 191 182 26 53
36 120 23 166 -7 25 -3 28 180 117 208 101 399 186 601 269 166 68 396 153
414 153 18 0 158 -162 179 -208 10 -20 18 -52 18 -69 0 -26 4 -33 20 -33 11 0
20 6 20 13 2 40 38 388 41 391 12 10 372 102 511 131 186 39 178 37 178 28z
m1073 -64 c68 -35 161 -105 209 -157 36 -41 118 -172 106 -172 -2 0 -46 9 -98
20 -52 11 -115 20 -140 20 -25 0 -61 3 -81 6 l-36 6 -5 132 c-3 72 -9 139 -13
149 -10 23 6 22 58 -4z m11560 2 c6 -6 3 -19 -7 -32 -18 -26 -21 -94 -6 -134
9 -23 1 -46 -59 -170 -172 -359 -438 -763 -663 -1010 l-55 -60 -21 89 -21 88
73 86 c136 162 277 364 401 572 78 132 219 411 261 518 28 71 30 73 59 67 16
-3 33 -9 38 -14z m430 -63 c-39 -25 -63 -75 -63 -130 0 -53 24 -88 60 -88 11
0 20 -5 20 -11 0 -38 -230 -549 -248 -549 -13 0 -107 69 -106 78 0 4 32 73 71
153 71 145 180 411 223 542 l22 68 24 -22 24 -23 -27 -18z m-15370 -270 c37
-156 67 -288 67 -294 0 -8 -13 -9 -40 -4 -50 9 -120 -3 -179 -32 -93 -45 -201
-184 -201 -260 0 -22 -14 -35 -92 -84 -51 -32 -132 -84 -181 -116 l-87 -59
-53 15 c-184 52 -393 8 -529 -113 -25 -22 -48 -41 -50 -41 -2 0 -76 58 -164
128 l-159 128 -3 51 c-3 51 -3 51 53 99 200 173 524 378 888 562 157 79 639
300 657 302 3 0 36 -127 73 -282z m1558 178 c5 -16 5 -41 2 -57 l-5 -28 -54
41 c-30 22 -53 42 -51 44 8 8 83 32 91 30 6 -1 13 -15 17 -30z m-3546 -170 c8
-49 15 -132 15 -185 0 -90 -16 -260 -25 -270 -7 -6 -93 66 -154 129 -57 58
-151 186 -151 204 0 12 31 38 179 149 57 43 108 74 112 70 4 -4 15 -48 24 -97z
m5305 14 c0 -60 -84 -345 -139 -474 -19 -43 -23 -47 -38 -35 -46 36 -248 213
-251 219 -1 4 34 69 78 146 l80 139 48 6 c83 10 222 10 222 -1z m262 -15 c108
-18 129 -31 147 -85 23 -74 19 -302 -8 -430 -29 -135 -105 -363 -171 -510 -52
-118 -174 -356 -217 -422 l-23 -38 -224 193 c-124 105 -225 194 -225 197 -1 3
41 77 93 163 52 86 118 204 148 262 29 58 56 105 60 105 4 0 72 -56 152 -125
79 -69 146 -125 149 -125 3 0 7 7 10 14 4 10 -43 57 -141 142 -109 94 -147
132 -145 148 0 12 22 75 47 141 37 99 75 238 102 374 5 23 6 23 87 16 45 -4
116 -13 159 -20z m-594 -3 c-18 -43 -135 -232 -143 -232 -5 0 -30 19 -54 42
l-45 42 36 66 35 65 64 11 c79 15 112 16 107 6z m862 -89 c37 -21 98 -69 141
-112 128 -128 178 -262 179 -473 0 -346 -149 -763 -510 -1427 l-95 -174 -200
-97 c-199 -97 -449 -210 -495 -225 -20 -7 -23 -5 -14 6 6 8 159 218 339 468
l328 454 -39 36 c-21 20 -66 59 -99 88 l-60 52 18 30 c183 311 328 651 388
911 29 127 37 358 16 448 l-15 64 27 -7 c14 -3 55 -23 91 -42z m-1208 -19 c23
-20 44 -38 46 -39 2 -2 -8 -21 -22 -44 -14 -22 -26 -44 -26 -48 0 -5 -20 -41
-44 -82 l-44 -73 -22 48 c-19 45 -20 51 -6 74 14 24 13 27 -4 38 -17 10 -22 8
-36 -12 -12 -19 -24 -25 -53 -24 -21 0 -52 -7 -70 -16 -36 -19 -86 -91 -101
-146 -13 -46 -13 -122 0 -156 9 -23 5 -36 -30 -96 -37 -64 -47 -88 -36 -88 2
0 11 -3 19 -6 10 -4 25 13 48 55 19 34 36 61 39 61 3 0 15 -8 27 -18 l23 -17
-123 -170 c-248 -344 -276 -383 -367 -519 -51 -76 -114 -174 -141 -218 l-48
-79 -6 48 c-16 105 -81 166 -154 144 -102 -30 -171 -177 -141 -301 12 -52 34
-80 108 -140 l44 -35 -32 -70 c-47 -104 -114 -305 -143 -430 -37 -156 -51
-290 -44 -416 l6 -109 -42 6 c-256 37 -414 164 -471 379 -67 249 7 649 189
1032 152 319 337 585 862 1240 26 33 49 47 110 71 189 71 568 189 615 191 16
1 42 -12 70 -35z m78 12 c0 -11 -19 -15 -25 -6 -3 5 1 10 9 10 9 0 16 -2 16
-4z m70 -138 l42 -37 -26 -45 c-26 -45 -26 -45 -6 -56 18 -9 23 -6 41 25 12
19 25 35 30 35 11 0 262 -217 267 -231 8 -20 -278 -529 -296 -529 -10 0 -436
369 -440 381 -2 5 4 9 12 9 9 0 36 20 61 44 45 45 75 117 75 178 0 35 100 209
117 203 7 -2 22 14 34 35 25 43 25 43 89 -12z m12162 -174 c34 -25 47 -41 43
-52 -14 -36 -154 -266 -233 -382 -123 -181 -211 -292 -225 -283 -7 4 -24 16
-39 27 -27 19 -27 20 -8 33 30 21 50 67 50 115 0 38 11 58 85 163 46 66 124
186 172 267 48 81 92 148 97 148 4 0 31 -16 58 -36z m-7078 -55 c16 -81 31
-75 -206 -84 -344 -13 -313 -14 -316 18 -2 15 -2 27 0 28 19 5 461 67 484 68
28 1 32 -3 38 -30z m7197 -30 c62 -45 62 -44 49 -70 -7 -13 -14 -26 -16 -27
-1 -2 -16 6 -32 18 -27 20 -33 21 -58 9 -32 -15 -74 -88 -74 -128 0 -14 9 -44
21 -68 l21 -44 -26 -39 c-15 -22 -34 -40 -44 -40 -36 0 -82 -68 -82 -120 0
-23 -18 -56 -70 -126 -38 -52 -75 -94 -81 -94 -11 0 -109 68 -109 76 0 2 38
55 83 116 130 176 264 383 337 521 14 26 28 47 31 47 3 0 26 -14 50 -31z
m-7751 -50 c0 -16 -4 -29 -9 -29 -6 0 -76 -11 -158 -25 -160 -28 -371 -78
-523 -124 l-95 -29 -7 32 c-4 17 -8 47 -10 66 l-3 35 395 56 c217 30 398 54
403 52 4 -2 7 -17 7 -34z m2111 -77 c21 -114 -3 -224 -60 -276 l-21 -19 -2 94
c-4 182 1 222 34 264 26 33 32 25 49 -63z m5879 -45 c52 -38 96 -72 98 -77 6
-15 -123 -230 -134 -226 -9 3 -203 139 -233 163 -3 2 5 10 17 19 33 23 52 67
52 121 0 30 7 60 20 81 l20 33 33 -23 c17 -12 75 -53 127 -91z m-7423 89 c7
-7 30 -192 25 -197 -4 -3 -50 -11 -102 -18 -52 -6 -164 -26 -248 -42 -84 -17
-156 -29 -158 -26 -10 10 -43 262 -36 269 18 18 503 31 519 14z m293 -22 c253
-36 502 -108 668 -194 99 -50 158 -88 118 -76 -231 74 -543 112 -838 103 -134
-4 -178 -3 -178 6 0 7 -6 52 -14 101 l-13 88 76 -7 c42 -3 123 -13 181 -21z
m-1125 -114 c4 -39 10 -72 14 -75 4 -2 68 5 141 15 74 11 135 18 136 17 7 -7
20 -118 15 -121 -3 -2 -64 -20 -136 -41 -154 -45 -330 -107 -506 -180 -125
-52 -129 -53 -134 -32 -8 40 -45 318 -45 341 0 21 12 27 127 60 142 42 365 95
374 90 4 -2 10 -35 14 -74z m2223 -74 c25 -96 29 -194 9 -202 -8 -3 -51 13
-97 36 -46 22 -90 40 -96 40 -33 0 -18 28 62 115 48 52 90 95 94 95 3 0 16
-38 28 -84z m-6665 -140 c114 -98 207 -181 207 -185 -1 -3 -32 -53 -70 -111
l-70 -105 0 68 c0 79 -16 125 -55 155 -76 60 -193 -9 -231 -134 -33 -110 -14
-179 72 -259 l64 -60 -36 -55 c-51 -77 -49 -76 -84 -46 -97 81 -240 -50 -240
-221 0 -54 19 -114 45 -143 13 -15 5 -36 -71 -188 l-87 -172 -56 47 c-140 119
-446 386 -448 392 -1 3 11 29 27 56 16 28 46 84 68 125 88 170 206 347 510
770 228 317 199 283 226 263 12 -10 115 -98 229 -197z m3888 142 c0 -2 13 -88
28 -192 l27 -189 -121 -58 c-134 -63 -433 -223 -539 -288 -37 -23 -69 -41 -71
-39 -6 7 -155 421 -153 424 21 20 468 216 636 278 174 65 191 70 193 64z
m2049 -24 c74 -8 149 -18 165 -23 l30 -8 -42 -7 c-50 -9 -91 -44 -99 -85 -5
-24 -12 -30 -43 -35 -20 -3 -55 -6 -78 -6 -60 0 -261 -27 -381 -51 -57 -11
-106 -19 -108 -16 -6 5 -34 192 -34 223 0 23 3 23 113 26 168 4 327 -2 477
-18z m-629 4 c3 -13 36 -244 34 -245 -1 -2 -64 -20 -141 -42 -76 -22 -189 -57
-251 -79 l-111 -40 -11 61 c-21 114 -38 258 -31 262 36 22 506 98 511 83z
m7609 -31 c0 -8 -113 -211 -127 -226 -2 -3 -11 2 -20 11 -15 15 -11 26 52 133
55 95 70 114 81 104 8 -6 14 -16 14 -22z m-380 -72 l121 -87 -24 -42 c-13 -22
-47 -82 -76 -133 l-53 -92 -67 47 c-37 26 -80 57 -96 69 l-30 22 24 17 c51 37
66 130 30 194 l-22 38 23 32 c12 17 28 29 35 26 8 -2 68 -44 135 -91z m-16720
-12 c47 -38 100 -80 118 -92 52 -36 54 -48 22 -141 -37 -106 -46 -191 -31
-296 l12 -84 -67 -92 c-36 -51 -78 -113 -92 -137 l-26 -45 -27 60 c-87 188
-109 475 -59 769 27 158 27 160 48 142 10 -7 55 -45 102 -84z m10500 42 c36
-9 69 -21 74 -26 9 -8 -38 -69 -53 -69 -4 0 -12 14 -20 31 -7 17 -34 45 -60
61 -25 16 -37 27 -26 25 11 -3 49 -13 85 -22z m-1551 -90 c6 -39 13 -85 17
-103 l5 -33 -49 7 c-139 18 -303 -127 -277 -245 5 -26 1 -29 -79 -69 -47 -24
-142 -74 -212 -112 -70 -39 -129 -68 -131 -67 -8 8 -61 413 -55 419 11 11 166
76 322 135 123 46 441 145 447 139 1 -1 7 -33 12 -71z m1723 9 c23 -20 45 -38
48 -41 5 -6 -101 5 -138 14 l-23 6 27 28 c15 16 31 29 35 29 4 0 27 -16 51
-36z m-3513 -75 c17 -47 31 -88 31 -91 0 -4 -69 -42 -154 -87 -126 -66 -507
-281 -658 -371 l-38 -22 -11 29 c-28 71 -49 137 -44 141 7 7 839 491 841 489
1 -1 15 -41 33 -88z m3630 46 c28 -14 51 -30 51 -35 0 -26 -81 5 -120 46 -34
34 -34 35 -8 25 15 -5 50 -22 77 -36z m-589 -25 c15 -29 90 -69 143 -76 72
-10 113 2 155 46 l38 39 109 -15 c77 -11 116 -21 129 -34 25 -24 13 -40 -57
-75 -41 -20 -66 -25 -127 -25 -221 0 -641 -84 -915 -184 -46 -17 -68 -20 -70
-13 -2 7 -13 72 -23 145 l-19 134 22 8 c59 22 397 66 527 69 67 1 79 -2 88
-19z m5497 -36 l12 -49 -132 -133 c-73 -73 -157 -156 -188 -183 l-57 -49 -21
79 -22 80 127 123 c86 85 145 133 187 155 34 18 66 31 72 29 5 -1 15 -25 22
-52z m-4748 -39 c15 -7 47 -30 72 -50 l43 -37 -79 7 c-44 4 -88 11 -97 16 -25
13 -60 67 -52 80 8 14 74 4 113 -16z m6000 16 c11 -7 0 -35 -60 -140 -41 -72
-79 -131 -85 -131 -6 0 -17 6 -23 13 -8 11 6 43 64 140 42 70 79 127 83 127 4
0 13 -4 21 -9z m-903 -38 c29 -21 54 -40 54 -43 0 -8 -163 -196 -223 -257
l-51 -52 -17 67 c-10 37 -18 75 -18 85 -1 15 183 237 196 237 3 0 29 -17 59
-37z m375 18 c8 -10 67 -55 132 -101 64 -45 117 -86 117 -91 0 -16 -92 -169
-102 -169 -5 0 -73 46 -151 102 -78 56 -143 103 -145 104 -5 3 122 173 129
174 4 0 13 -8 20 -19z m-1035 -88 c-104 -100 -107 -101 -120 -37 -7 30 -7 30
101 81 59 28 110 52 113 52 3 0 -40 -43 -94 -96z m-14473 44 c90 -45 156 -112
199 -204 26 -55 32 -81 36 -163 l5 -97 -45 -36 c-25 -20 -48 -37 -52 -37 -5 0
-540 434 -581 471 -17 16 27 46 115 78 74 27 96 31 167 28 70 -3 92 -8 156
-40z m9927 8 l23 -25 -68 0 c-71 0 -73 2 -28 31 38 24 46 23 73 -6z m306 -36
c35 -17 66 -35 69 -39 2 -4 -24 -1 -58 7 -47 11 -71 23 -97 49 -35 35 -35 35
-7 25 15 -6 57 -25 93 -42z m-6539 -130 c109 -94 198 -176 197 -183 -1 -13
-266 -396 -274 -396 -5 0 -340 286 -374 320 -19 18 -16 23 115 224 73 113 135
206 136 206 2 0 92 -77 200 -171z m11132 86 l20 -80 -87 -89 c-98 -100 -284
-268 -289 -262 -2 2 -13 35 -24 75 l-20 71 188 184 c103 101 189 183 190 183
1 -1 11 -38 22 -82z m-8462 -146 c39 -107 72 -201 72 -210 1 -10 -56 -52 -156
-114 -87 -54 -272 -172 -411 -263 -139 -90 -255 -162 -258 -159 -7 6 -174 460
-174 472 0 18 823 477 845 471 6 -1 42 -90 82 -197z m8906 146 c26 -20 47 -39
47 -43 0 -18 -183 -225 -315 -357 -280 -281 -588 -512 -902 -677 l-112 -59
-10 38 c-27 98 -27 96 26 122 46 22 246 143 288 174 18 14 21 13 37 -14 15
-25 24 -29 60 -29 99 0 172 96 139 182 -8 22 -1 31 82 98 127 104 383 356 497
489 52 61 100 111 105 111 6 0 31 -16 58 -35z m-5173 14 c82 -10 87 -12 133
-57 26 -25 47 -51 47 -57 0 -6 -34 -10 -89 -10 l-89 0 -52 68 c-28 37 -47 67
-43 67 5 0 47 -5 93 -11z m-2880 -3 c0 -2 11 -81 25 -176 32 -222 33 -212 -6
-198 -113 39 -289 -91 -289 -215 0 -32 -7 -38 -157 -139 -87 -58 -309 -213
-493 -345 -415 -295 -500 -355 -500 -351 0 2 -40 114 -90 248 -49 134 -87 247
-82 251 29 28 808 519 822 519 4 0 18 -28 30 -62 13 -35 24 -68 27 -73 2 -7
-17 -11 -49 -11 -104 0 -213 -76 -268 -187 -74 -148 -9 -280 131 -264 66 8
124 40 185 103 56 57 94 138 94 198 0 19 -12 65 -26 102 -14 38 -39 104 -54
146 l-28 77 141 83 c158 91 555 297 575 298 6 0 12 -2 12 -4z m3126 -41 c36
-11 148 -84 141 -92 -2 -1 -40 0 -84 4 l-81 6 -54 54 -53 55 45 -7 c25 -4 63
-13 86 -20z m-10521 -290 c132 -108 244 -201 249 -205 5 -5 -31 -53 -80 -108
-49 -54 -114 -131 -144 -170 l-55 -71 -93 -22 c-194 -46 -387 -6 -526 109 -51
42 -136 148 -136 171 0 16 141 230 167 254 18 15 20 14 42 -32 47 -99 163
-195 280 -231 131 -41 356 -10 334 46 -4 11 -32 14 -133 14 -127 0 -128 0
-176 33 -134 89 -171 312 -76 464 l14 23 47 -38 c25 -22 154 -128 286 -237z
m10740 214 c42 -17 74 -33 71 -36 -3 -3 -27 -2 -55 2 -37 5 -59 15 -88 42 -42
38 -38 38 72 -8z m3820 -88 c9 -39 14 -75 10 -81 -16 -26 -264 -215 -397 -303
-188 -125 -297 -187 -349 -198 -23 -5 -43 -8 -44 -7 -2 2 -6 30 -10 64 l-7 61
99 58 c165 98 381 248 528 368 77 63 143 113 146 111 4 -2 14 -35 24 -73z
m479 63 c13 -33 6 -42 -33 -46 l-38 -3 24 32 c28 37 38 40 47 17z m-4466 -106
c115 -147 225 -288 236 -303 10 -13 -40 -105 -60 -112 -19 -6 -247 239 -347
372 -53 72 -97 133 -97 138 0 4 42 7 94 7 l94 0 80 -102z m71 92 c40 0 48 -5
117 -72 99 -95 200 -218 180 -218 -30 0 -67 -24 -87 -57 -12 -19 -25 -33 -30
-31 -11 4 -299 371 -299 382 0 5 17 6 38 2 20 -3 57 -6 81 -6z m5404 -2 c15
-12 12 -21 -33 -98 -27 -47 -54 -85 -59 -84 -27 3 -31 5 -31 18 0 15 92 176
100 176 4 0 14 -6 23 -12z m-5210 -28 c103 -21 245 -144 481 -420 64 -74 114
-141 111 -148 -2 -7 6 -17 19 -22 13 -5 27 -13 30 -19 7 -11 -51 -111 -64
-111 -8 0 -132 109 -175 154 -88 91 -185 211 -185 229 0 23 -37 67 -56 67 -7
0 -32 24 -56 52 -23 29 -81 95 -127 147 -67 74 -80 93 -60 88 13 -3 50 -11 82
-17z m339 -121 c157 -82 251 -165 514 -455 95 -106 214 -227 265 -270 l92 -79
-78 -3 c-79 -3 -79 -3 -141 40 -79 56 -214 166 -214 176 0 10 50 32 72 32 10
0 18 5 18 10 0 6 -4 10 -10 10 -5 0 -10 6 -10 14 0 8 -10 27 -23 41 -26 31
-100 45 -135 26 -11 -6 -27 -8 -35 -5 -8 3 -73 74 -145 157 -155 179 -222 250
-317 335 l-70 63 68 -25 c37 -14 104 -44 149 -67z m-1478 38 c69 -51 -109
-167 -256 -167 -61 0 -88 14 -88 44 0 36 31 56 152 97 122 41 164 46 192 26z
m5173 -35 c-8 -39 12 -73 51 -86 l33 -12 -73 -64 c-105 -94 -174 -150 -185
-150 -5 0 -17 32 -27 72 l-19 71 54 46 c30 25 79 69 109 98 30 29 57 53 59 53
2 0 1 -13 -2 -28z m-11467 11 c-1 -19 -19 -35 -30 -28 -10 6 -9 11 5 22 22 15
25 16 25 6z m11204 -98 l18 -70 -47 -41 -46 -41 -102 1 c-90 1 -108 -2 -157
-25 -64 -31 -137 -93 -164 -140 -18 -31 -16 -30 28 14 78 77 198 127 304 127
l55 0 -28 -22 c-67 -52 -230 -158 -245 -158 -20 0 -110 -56 -110 -69 0 -11
-45 -38 -194 -115 -118 -62 -126 -62 -126 2 0 28 5 35 29 43 26 9 29 14 24 42
-4 31 -2 34 59 66 183 99 499 316 633 434 22 19 43 32 46 29 3 -4 14 -38 23
-77z m-10401 4 c20 -17 37 -35 37 -40 0 -6 -64 -98 -141 -205 l-141 -195 -32
28 c-17 15 -35 31 -40 35 -5 3 16 42 45 85 111 163 224 322 229 323 3 0 22
-14 43 -31z m-651 -134 c90 -77 181 -158 204 -180 23 -22 53 -49 67 -60 l26
-20 -65 -110 c-37 -60 -93 -159 -126 -220 -33 -60 -64 -114 -68 -119 -6 -6
-314 247 -440 362 -3 3 1 7 9 10 8 3 34 23 57 44 69 64 104 193 74 273 -9 23
-4 35 35 96 25 39 50 69 55 67 5 -2 82 -66 172 -143z m-3163 36 c-14 -47 -15
-47 -41 -24 -19 17 -19 18 14 44 18 15 34 26 36 24 2 -2 -2 -21 -9 -44z m5267
-201 c46 -124 83 -232 84 -240 0 -9 -92 -72 -228 -156 -248 -155 -491 -300
-515 -310 -12 -4 -20 7 -33 53 -9 32 -40 139 -69 238 -36 126 -57 181 -68 183
-8 2 -17 -1 -20 -5 -3 -5 26 -118 64 -252 39 -134 66 -248 62 -252 -33 -33
-830 -443 -901 -464 l-23 -7 16 39 c80 192 189 415 316 646 l64 118 165 86
c207 108 548 297 795 442 104 61 194 110 199 108 5 -2 46 -104 92 -227z m8996
115 c21 -74 17 -85 -31 -85 -35 0 -86 -38 -111 -82 -13 -24 -49 -55 -105 -92
-47 -31 -86 -56 -88 -56 -2 0 -2 22 1 49 4 41 1 52 -18 71 -18 18 -20 24 -9
30 8 5 61 43 119 85 87 63 110 75 137 73 17 -2 29 0 27 4 -3 4 -13 8 -22 8
-12 1 -4 12 23 35 22 19 44 33 49 32 5 -2 18 -34 28 -72z m-3721 -10 c23 -4
49 -1 72 8 l36 16 72 -86 c40 -46 122 -131 182 -188 l110 -104 -17 -26 c-23
-35 -47 -28 -68 17 -20 43 -39 55 -99 64 -30 5 -63 22 -102 52 -71 54 -230
205 -258 243 -26 37 -15 58 15 31 11 -11 37 -23 57 -27z m-10639 8 c32 -28 21
-53 -59 -133 -72 -71 -193 -155 -214 -148 -14 5 233 298 249 298 3 0 14 -7 24
-17z m10811 -268 c31 -22 56 -43 57 -46 0 -3 -11 -11 -24 -18 -27 -15 -50 -6
-104 40 -18 16 -45 32 -60 35 -27 7 -120 70 -179 121 l-33 28 32 52 32 51 111
-111 c62 -62 137 -130 168 -152z m-8723 124 c-10 -17 -14 -18 -27 -8 -13 12
-13 14 4 20 30 12 34 10 23 -12z m11344 -10 c14 -69 9 -85 -31 -97 -20 -6 -38
-10 -40 -8 -2 2 -6 25 -9 52 -5 46 -4 50 23 66 41 24 50 22 57 -13z m-2893
-36 c43 -32 78 -60 79 -63 0 -3 -10 -10 -22 -15 -20 -9 -70 -85 -188 -282
l-19 -33 -73 35 c-40 20 -73 41 -73 48 0 12 206 366 214 367 2 0 39 -26 82
-57z m2769 -5 c0 -7 3 -29 6 -49 6 -34 5 -36 -26 -42 -28 -6 -31 -10 -28 -38
3 -31 1 -33 -67 -61 -93 -39 -303 -111 -401 -138 -43 -12 -87 -24 -96 -26 -15
-4 -16 -1 -8 26 5 19 5 42 -2 61 -6 17 -7 34 -2 38 5 5 50 20 99 35 104 32
325 118 435 170 84 40 90 41 90 24z m-10998 -219 c128 -111 241 -209 252 -219
18 -17 17 -22 -32 -156 -27 -77 -53 -154 -57 -171 -3 -18 -11 -35 -16 -39 -5
-3 -47 29 -93 70 -46 42 -88 76 -93 76 -6 0 -16 -6 -22 -14 -9 -11 10 -32 92
-104 l104 -91 -11 -50 c-9 -47 -13 -52 -46 -61 -96 -25 -229 -42 -366 -47
l-151 -6 -6 33 c-27 131 14 432 90 673 33 104 111 307 119 307 2 0 108 -91
236 -201z m11683 191 c19 -30 -88 -140 -137 -140 -34 0 -36 19 -7 67 37 59
125 104 144 73z m-10383 -27 c15 -15 28 -30 28 -35 0 -4 -48 -74 -107 -155
-119 -166 -184 -256 -190 -262 -2 -3 -10 2 -18 10 -13 12 -6 31 56 143 109
200 183 325 193 326 6 0 23 -12 38 -27z m7605 -43 c14 -11 32 -20 39 -20 7 0
41 -24 75 -52 34 -29 96 -79 137 -110 82 -63 80 -67 -29 -49 -59 10 -134 50
-237 126 l-63 46 22 39 c13 22 25 40 27 40 2 0 15 -9 29 -20z m-8180 -200
l242 -210 -53 -112 -53 -113 -72 -27 -73 -28 -34 27 c-179 147 -373 321 -373
335 -1 20 156 338 167 338 4 0 116 -95 249 -210z m10750 179 c-3 -11 1 -42 9
-67 7 -26 14 -50 14 -53 0 -7 -254 -129 -269 -129 -21 0 -11 19 12 22 19 3 22
9 22 53 0 51 -2 53 -44 40 -16 -5 -22 -3 -19 5 3 11 249 145 272 149 4 0 6 -8
3 -20z m-2996 -35 c17 -8 28 -21 26 -27 -3 -7 -37 -64 -76 -127 -39 -63 -80
-132 -91 -152 -11 -21 -25 -38 -30 -38 -13 0 -210 98 -210 105 0 4 138 236
145 244 2 1 14 -6 26 -17 44 -42 125 -40 157 4 21 28 16 27 53 8z m2669 -11
c0 -16 3 -38 6 -50 5 -18 0 -25 -30 -40 -44 -20 -53 -13 -57 46 -3 43 -2 45
31 57 49 18 50 17 50 -13z m-2235 -78 c52 -36 91 -65 86 -65 -58 0 -211 58
-211 80 0 9 22 50 27 50 1 0 45 -29 98 -65z m2116 9 c3 -27 5 -52 3 -55 -8
-15 -265 -102 -407 -139 -246 -64 -372 -81 -627 -87 l-226 -5 -54 28 -55 28
120 7 c66 4 179 15 251 24 122 16 133 16 163 0 42 -21 83 -12 130 29 25 23 58
37 111 50 94 23 377 116 450 148 33 15 70 23 95 22 l40 -2 6 -48z m-7788 -197
c48 -133 87 -245 87 -249 0 -19 -775 -516 -786 -505 -5 5 -154 516 -154 527 0
4 60 42 133 85 148 87 384 232 527 323 52 33 97 61 100 61 3 1 45 -108 93
-242z m5311 202 c25 -14 49 -20 78 -18 42 3 108 -8 108 -18 0 -8 -143 -243
-151 -249 -4 -2 -51 17 -104 43 -66 33 -94 52 -90 62 8 21 115 201 120 201 2
0 20 -9 39 -21z m2981 11 c3 -5 1 -10 -4 -10 -6 0 -11 5 -11 10 0 6 2 10 4 10
3 0 8 -4 11 -10z m-2799 -15 c18 -13 18 -14 -4 -8 -12 3 -25 9 -28 14 -8 14
10 11 32 -6z m2419 -34 c-6 -5 -21 -12 -35 -15 l-25 -7 25 15 c28 17 50 21 35
7z m-945 -6 c0 -2 -9 -19 -20 -37 -11 -18 -20 -45 -20 -60 0 -20 -6 -29 -22
-33 -70 -15 -193 -26 -350 -32 l-177 -6 -51 33 c-28 18 -49 34 -47 36 2 2 62
9 133 14 133 11 387 49 484 74 67 17 70 17 70 11z m1313 -52 c8 -32 14 -60 11
-64 -9 -15 -290 -127 -297 -118 -2 2 -7 29 -10 60 l-7 56 133 60 c72 34 137
62 143 62 6 1 18 -25 27 -56z m-2427 -28 c17 -13 16 -14 -16 -3 -43 14 -49 18
-24 18 11 0 29 -7 40 -15z m1889 -26 c7 -39 8 -41 37 -35 24 5 29 3 26 -11 -5
-27 -234 -94 -452 -132 -292 -51 -689 -45 -751 10 -5 5 43 9 111 9 270 0 644
71 944 179 75 27 77 26 85 -20z m-1672 -7 c26 -14 46 -27 44 -29 -12 -11 -207
45 -207 60 0 2 26 2 58 -1 35 -3 75 -14 105 -30z m205 -9 c20 -15 42 -31 47
-36 22 -19 -141 6 -187 30 -27 13 -48 26 -48 28 0 3 34 5 76 5 66 0 80 -3 112
-27z m1662 16 c0 -10 -59 -39 -81 -39 -22 0 -2 24 32 36 44 16 49 16 49 3z m5
-66 c14 -87 15 -82 -26 -95 -22 -6 -41 -9 -43 -7 -3 2 -8 28 -12 57 -7 52 -7
52 27 67 47 20 47 20 54 -22z m-1741 -13 c5 -5 -8 -5 -30 1 -21 6 -41 14 -44
16 -9 10 64 -7 74 -17z m209 -21 c20 -11 37 -22 37 -25 0 -16 -167 23 -193 46
-17 15 121 -4 156 -21z m1412 -30 c5 -37 4 -54 -5 -59 -17 -10 -192 -47 -311
-65 -214 -33 -503 -29 -649 10 l-55 14 63 -4 c96 -7 339 13 486 40 123 23 350
81 406 104 49 20 58 15 65 -40z m-10444 -244 c26 -22 48 -43 48 -47 1 -7 -257
-94 -347 -118 -43 -11 -44 -11 -98 36 -50 43 -55 49 -48 78 9 46 73 242 95
293 l19 44 141 -123 c78 -68 163 -141 190 -163z m7843 235 c52 -25 95 -48 96
-51 0 -3 -6 -13 -13 -23 -12 -16 -19 -14 -103 26 -122 60 -116 55 -101 78 6
11 15 19 18 18 4 -2 50 -23 103 -48z m-7461 -16 c3 -4 -13 -33 -35 -65 -23
-32 -43 -57 -45 -55 -6 6 56 126 65 126 5 0 11 -3 15 -6z m8757 -4 c20 -6 21
-8 5 -8 -11 0 -29 3 -40 8 -25 11 1 11 35 0z m-8926 -242 c-4 -7 -16 -25 -26
-40 -18 -27 -20 -27 -44 -12 -13 9 -24 19 -24 23 0 6 72 37 93 40 5 0 5 -5 1
-11z m-54 -113 c10 -12 7 -31 -18 -108 -17 -50 -40 -130 -52 -177 -11 -47 -23
-91 -25 -98 -3 -8 -75 49 -187 149 -101 89 -187 166 -191 170 -5 4 38 21 95
38 56 18 146 47 198 65 l95 34 36 -29 c20 -15 42 -35 49 -44z m-586 -24 l27
-28 -40 -11 c-44 -11 -44 -10 -35 37 8 38 13 38 48 2z m4196 4 c0 -2 -7 -5
-15 -9 -9 -3 -15 0 -15 9 0 9 6 12 15 9 8 -4 15 -7 15 -9z m297 -43 c-158
-141 -169 -149 -238 -161 -105 -18 -99 -22 -99 64 0 41 1 75 3 76 29 7 330 57
349 58 27 1 27 0 -15 -37z m-267 -227 c-7 -9 -26 -25 -42 -37 l-30 -20 4 28
c2 23 9 30 33 35 47 10 48 10 35 -6z"/>
<path d="M5977 44 l-27 -44 39 0 c31 0 40 5 49 25 16 36 15 40 -11 52 -21 10
-26 7 -50 -33z"/>
</g>
</svg>
