<?xml version="1.0" standalone="no"?>
<!DOCTYPE svg PUBLIC "-//W3C//DTD SVG 20010904//EN"
 "http://www.w3.org/TR/2001/REC-SVG-20010904/DTD/svg10.dtd">
<svg version="1.0" xmlns="http://www.w3.org/2000/svg"
 width="563.000000pt" height="258.000000pt" viewBox="0 0 563.000000 258.000000"
 preserveAspectRatio="xMidYMid meet">

<g transform="translate(0.000000,258.000000) scale(0.100000,-0.100000)"
fill="#000000" stroke="none">
<path d="M801 1885 c-435 -99 -667 -526 -509 -935 73 -187 241 -341 446 -408
62 -20 98 -25 187 -25 203 -1 351 60 496 203 70 69 94 101 128 170 55 113 74
194 74 310 1 102 -12 172 -46 260 -71 186 -249 348 -451 412 -82 26 -241 32
-325 13z m244 -99 c34 -20 92 -80 122 -125 2 -3 61 18 72 25 2 2 -7 17 -19 34
-12 17 -20 33 -18 35 5 6 108 -57 108 -66 0 -3 -28 -17 -62 -29 -95 -34 -167
-73 -289 -155 -61 -41 -121 -75 -133 -75 -27 0 -66 -34 -66 -58 0 -10 -41 -58
-91 -107 -116 -115 -117 -118 -78 -146 l30 -21 85 90 c64 68 95 94 127 104 32
11 46 23 60 51 15 29 47 56 138 116 131 87 237 136 317 147 49 6 52 5 52 -15
0 -12 -10 -45 -22 -72 -18 -42 -20 -58 -12 -97 5 -26 13 -47 18 -47 5 0 26 31
47 70 l38 69 20 -47 c34 -79 51 -148 58 -236 5 -63 3 -82 -5 -77 -7 4 -12 19
-12 34 0 33 -25 72 -46 72 -8 0 -35 19 -61 43 l-46 42 7 -80 c8 -86 23 -121
61 -135 33 -13 59 -98 45 -150 -12 -44 -30 -62 -95 -92 -44 -20 -66 -23 -172
-23 -100 0 -125 3 -140 18 -13 11 -35 16 -69 16 -118 -2 -385 138 -514 270
-85 87 -124 159 -125 229 0 49 3 56 37 88 21 19 57 39 81 46 36 9 46 17 56 43
16 46 15 48 -30 42 l-41 -5 33 35 c34 36 149 116 156 109 2 -2 -12 -28 -32
-57 -33 -50 -95 -194 -95 -220 0 -6 -11 -22 -25 -35 -25 -23 -34 -68 -15 -79
6 -3 10 -44 10 -89 0 -101 15 -124 55 -86 21 19 25 33 25 78 0 39 6 61 20 79
21 27 25 59 11 82 -6 10 0 41 18 91 49 138 118 231 204 275 65 33 135 30 202
-9z m-665 -599 c24 -32 66 -79 94 -104 105 -95 304 -208 435 -247 29 -9 64
-27 77 -41 22 -24 71 -34 88 -18 4 4 64 8 134 8 70 1 141 5 157 9 l30 9 -25
-28 c-28 -31 -161 -127 -167 -121 -2 2 10 26 27 52 l31 49 -40 3 c-38 3 -44
-1 -113 -72 -57 -59 -83 -77 -118 -86 -139 -37 -274 73 -349 285 -16 44 -30
65 -52 77 -29 17 -30 17 -40 -5 -14 -31 39 -176 91 -251 22 -31 37 -56 33 -56
-3 0 -33 17 -66 37 -55 33 -59 37 -40 46 21 9 21 11 6 43 -16 32 -18 33 -60
27 -43 -6 -43 -5 -43 25 0 17 16 61 35 98 l36 68 -28 22 c-34 27 -40 23 -82
-61 l-30 -59 -21 49 c-12 28 -28 70 -36 95 -17 53 -31 230 -17 215 5 -5 29
-36 53 -68z"/>
<path d="M695 1596 c-8 -19 -15 -37 -15 -40 0 -3 21 -8 48 -11 26 -3 79 -13
118 -22 70 -16 70 -16 107 8 20 13 37 27 37 30 0 7 -130 45 -185 54 -22 3 -52
9 -68 12 -24 4 -29 0 -42 -31z"/>
<path d="M1262 1557 c-37 -11 -37 -8 -7 -112 28 -98 32 -318 7 -435 -11 -52
-23 -102 -26 -110 -5 -12 2 -15 38 -12 l45 4 18 76 c36 155 20 465 -30 573
-11 23 -15 25 -45 16z"/>
<path d="M1103 1478 c-41 -25 -41 -32 -3 -48 17 -7 56 -28 87 -47 31 -18 57
-32 59 -30 2 2 -2 25 -9 52 -10 42 -18 53 -52 72 -47 27 -42 27 -82 1z"/>
<path d="M1145 1208 c-55 -55 -138 -130 -185 -166 -47 -36 -89 -69 -93 -73 -5
-3 12 -14 37 -22 l45 -16 73 58 c40 32 110 93 156 135 74 71 82 81 81 115 -1
78 -7 77 -114 -31z"/>
<path d="M696 867 c-17 -13 -17 -15 -2 -45 9 -18 19 -32 23 -32 3 0 27 12 51
26 l45 27 -34 18 c-41 22 -59 23 -83 6z"/>
<path d="M2163 1841 c-199 -110 -286 -299 -169 -370 36 -22 63 -28 169 -40 43
-5 80 -11 83 -14 10 -10 -10 -38 -41 -57 -56 -35 -151 -22 -226 30 -24 18 -25
18 -38 -2 -7 -12 -15 -33 -17 -47 -10 -77 -12 -73 46 -103 30 -16 80 -34 111
-40 129 -27 268 52 303 172 9 31 14 68 10 87 -12 64 -92 104 -236 119 -38 3
-68 8 -68 11 0 11 64 92 76 97 10 4 14 -3 14 -25 0 -27 2 -29 20 -19 15 8 25
7 41 -4 16 -11 28 -12 50 -4 28 10 29 11 29 84 0 63 -3 75 -20 84 -11 6 -20
17 -20 25 0 8 -9 15 -19 15 -10 0 -21 7 -25 15 -7 20 -13 19 -73 -14z"/>
<path d="M3005 1849 c-103 -15 -110 -17 -92 -37 9 -10 12 -25 8 -36 -4 -10 -2
-34 3 -52 8 -26 15 -32 28 -28 17 5 18 -9 18 -206 0 -179 2 -211 15 -216 9 -4
14 -12 13 -19 -2 -6 11 -23 27 -37 28 -24 34 -25 95 -17 153 21 239 66 284
150 24 42 28 60 23 102 -4 43 -10 56 -44 87 -21 21 -46 39 -54 42 -11 4 -8 13
14 45 68 98 55 172 -38 214 -44 20 -187 24 -300 8z m209 -160 c-29 -31 -74
-59 -94 -59 -5 0 -10 20 -10 45 l0 45 67 0 67 0 -30 -31z m43 -215 c76 -21 -1
-107 -114 -128 l-33 -5 0 69 0 70 63 0 c34 0 72 -3 84 -6z"/>
<path d="M4035 1854 c-95 -13 -93 -12 -93 -49 0 -19 4 -38 10 -41 5 -3 6 -19
3 -35 -6 -24 -3 -29 13 -29 19 0 20 -11 27 -250 7 -244 8 -249 27 -239 15 8
24 7 37 -5 13 -12 20 -13 29 -4 7 7 22 13 35 13 21 0 22 4 20 71 -2 68 -1 71
26 87 l29 17 48 -105 c26 -58 51 -105 55 -105 4 0 12 7 19 15 7 8 25 15 40 15
15 0 35 9 45 20 17 19 17 23 -32 127 l-50 108 37 41 c53 58 71 97 72 154 0 73
-33 134 -90 168 -43 25 -56 27 -162 28 -63 1 -128 0 -145 -2z m210 -148 c28
-12 35 -20 35 -44 0 -15 -9 -38 -20 -50 -25 -27 -110 -85 -116 -80 -2 3 -7 46
-10 96 l-7 92 42 0 c23 0 57 -7 76 -14z"/>
<path d="M5243 1847 l-23 -10 7 -216 6 -216 -55 -18 c-30 -9 -60 -17 -66 -17
-7 0 -9 70 -5 240 l6 239 -32 -12 c-25 -9 -36 -9 -51 1 -39 24 -56 1 -63 -84
-11 -124 -8 -474 3 -474 6 0 10 -11 10 -25 0 -16 6 -25 15 -25 8 0 15 -9 15
-20 0 -11 3 -20 6 -20 4 0 49 14 101 30 108 35 113 35 113 15 0 -24 41 -36 67
-19 16 10 29 11 48 4 15 -6 27 -10 29 -10 4 0 -6 634 -10 639 -1 2 -17 -2 -35
-8 -26 -9 -36 -8 -48 3 -12 10 -22 11 -38 3z"/>
<path d="M2568 1841 c-58 -3 -109 -8 -112 -11 -8 -9 -10 -75 -2 -88 4 -6 2
-21 -4 -32 -9 -17 -8 -20 11 -20 l22 0 -7 -215 c-7 -212 -7 -215 14 -215 13 0
20 -7 20 -20 0 -11 6 -20 14 -20 8 0 17 -9 21 -20 5 -15 12 -18 33 -14 15 3
88 15 162 27 l135 23 -1 35 c0 20 -4 41 -8 48 -4 7 -5 23 -2 37 8 29 17 28
-124 4 -63 -11 -116 -20 -117 -20 -2 0 -3 22 -3 49 l0 49 99 12 99 12 6 31 c4
21 1 36 -8 45 -11 11 -12 21 -5 40 5 14 8 26 7 27 -2 1 -45 -3 -95 -9 l-93
-12 0 58 0 58 53 0 c28 0 75 3 102 6 l50 6 0 67 0 66 -80 1 c-44 0 -128 -2
-187 -5z"/>
<path d="M3610 1843 c-144 -4 -137 0 -136 -83 1 -58 4 -70 17 -70 15 0 16 -20
11 -215 -4 -195 -3 -215 12 -215 9 0 16 -8 16 -20 0 -13 7 -20 20 -20 14 0 20
-7 20 -21 0 -17 5 -20 28 -15 15 3 81 15 147 26 177 30 167 27 155 51 -8 15
-8 24 -1 33 8 10 7 17 -3 25 -11 9 -12 19 -6 37 11 29 18 29 -125 5 -60 -10
-114 -16 -118 -14 -7 4 0 81 7 90 1 1 43 7 94 14 91 11 92 12 101 43 6 22 4
36 -6 47 -8 10 -12 26 -8 41 6 24 6 25 -47 17 -29 -4 -72 -8 -95 -8 l-43 -1 0
55 0 55 58 0 c31 0 80 3 109 6 50 6 51 7 41 30 -8 17 -8 27 1 38 8 9 10 27 6
46 l-7 30 -76 -2 c-42 -1 -120 -3 -172 -5z"/>
<path d="M4590 1840 c-63 -4 -115 -8 -115 -9 0 0 0 -18 0 -39 0 -20 3 -42 7
-47 4 -6 3 -17 -3 -25 -14 -23 -11 -30 12 -30 21 0 21 -1 13 -215 l-7 -215 22
0 c18 0 21 -4 16 -20 -5 -16 -2 -20 14 -20 15 0 21 -6 21 -21 0 -17 5 -20 28
-15 15 3 83 15 152 26 165 27 157 24 155 63 -2 17 -6 40 -10 50 -4 9 -5 26 -2
37 6 24 17 24 -123 0 -63 -11 -116 -20 -117 -20 -2 0 -3 22 -3 49 l0 48 93 12
c50 7 95 15 98 19 16 17 18 60 4 72 -9 7 -12 22 -9 39 l6 27 -92 -11 c-50 -6
-93 -8 -96 -3 -3 5 -3 31 1 58 l7 50 51 0 c29 0 75 3 104 6 49 6 51 8 42 31
-6 15 -5 30 3 42 6 10 8 30 4 44 -6 27 -8 27 -84 25 -42 -1 -129 -5 -192 -8z"/>
<path d="M3880 883 c-46 -17 -50 -30 -50 -172 0 -75 4 -141 8 -147 24 -37 93
-39 112 -4 6 10 10 59 10 109 l0 91 -35 0 c-28 0 -35 -4 -35 -19 0 -10 7 -22
15 -25 24 -9 17 -129 -7 -134 -16 -3 -18 8 -18 127 0 113 2 131 16 131 9 0 18
-9 21 -20 8 -28 43 -26 43 3 0 12 -4 27 -8 33 -7 10 -47 35 -54 33 -2 0 -10
-3 -18 -6z"/>
<path d="M2021 738 c-12 -79 -24 -155 -27 -170 -5 -24 -2 -28 19 -28 22 0 25
5 31 60 6 55 9 60 31 60 20 0 25 -6 30 -37 12 -77 15 -83 35 -83 24 0 25 -8
-8 180 l-28 155 -31 3 -30 3 -22 -143z m68 -5 c1 -24 -3 -33 -15 -33 -14 0
-15 7 -10 38 3 20 6 46 7 57 2 31 17 -22 18 -62z"/>
<path d="M2285 868 c-33 -19 -35 -27 -35 -160 0 -115 2 -130 20 -148 40 -40
110 -11 110 45 0 20 -5 25 -25 25 -18 0 -25 -5 -25 -18 0 -26 -11 -34 -27 -21
-14 12 -19 191 -7 223 8 20 34 21 34 1 0 -9 9 -15 25 -15 31 0 32 18 4 54 -22
28 -42 32 -74 14z"/>
<path d="M2460 710 l0 -170 60 0 c53 0 60 2 60 20 0 16 -7 20 -35 20 l-35 0 0
70 0 70 35 0 c28 0 35 4 35 20 0 16 -7 20 -35 20 -33 0 -35 2 -35 34 0 32 3
35 33 38 24 2 33 8 35 26 3 21 0 22 -57 22 l-61 0 0 -170z"/>
<path d="M2660 710 l0 -170 25 0 c22 0 25 4 26 38 l1 37 16 -37 c12 -28 23
-38 40 -38 26 0 26 1 8 45 -13 29 -13 35 0 46 10 8 14 37 14 114 0 121 -9 135
-83 135 l-47 0 0 -170z m88 33 c-3 -74 -6 -88 -20 -91 -16 -3 -18 6 -18 87 0
85 1 91 20 91 20 0 21 -5 18 -87z"/>
<path d="M2884 853 c3 -16 12 -80 21 -143 23 -170 23 -170 49 -170 21 0 23 7
40 138 9 75 20 152 23 170 5 29 3 32 -20 32 -23 0 -25 -4 -32 -75 -4 -41 -10
-73 -15 -70 -4 3 -11 36 -15 75 -7 66 -8 70 -32 70 -21 0 -24 -3 -19 -27z"/>
<path d="M3132 864 c-21 -14 -22 -22 -22 -153 0 -121 2 -140 18 -154 23 -21
66 -22 86 -2 22 22 28 70 24 183 -2 81 -7 104 -22 121 -23 25 -53 27 -84 5z
m56 -156 c-3 -101 -6 -123 -18 -123 -12 0 -16 20 -18 109 -3 120 0 136 23 136
13 0 15 -17 13 -122z"/>
<path d="M3480 710 l0 -170 45 0 c77 0 85 16 85 169 0 128 0 130 -26 150 -17
13 -41 21 -65 21 l-39 0 0 -170z m84 104 c3 -9 6 -60 6 -114 0 -73 -4 -101
-15 -110 -28 -23 -35 0 -35 121 0 110 1 119 19 119 10 0 22 -7 25 -16z"/>
<path d="M3700 710 c0 -163 1 -170 20 -170 19 0 20 7 20 170 0 163 -1 170 -20
170 -19 0 -20 -7 -20 -170z"/>
<path d="M4050 710 c0 -163 1 -170 20 -170 19 0 20 7 20 170 0 163 -1 170 -20
170 -19 0 -20 -7 -20 -170z"/>
<path d="M4180 860 c0 -16 7 -20 30 -20 l30 0 0 -150 0 -150 25 0 25 0 0 150
0 150 25 0 c18 0 25 5 25 20 0 18 -7 20 -80 20 -73 0 -80 -2 -80 -20z"/>
<path d="M4445 868 c-5 -17 -45 -293 -45 -313 0 -8 9 -15 20 -15 14 0 21 9 25
38 13 80 15 83 38 80 18 -2 23 -12 31 -60 8 -50 12 -58 31 -58 l22 0 -28 163
c-16 89 -29 165 -29 170 0 12 -60 8 -65 -5z m48 -120 c6 -43 5 -48 -13 -48
-16 0 -18 5 -14 38 11 78 18 80 27 10z"/>
<path d="M4660 710 l0 -170 55 0 c48 0 55 2 55 20 0 16 -7 20 -35 20 l-35 0 0
150 c0 143 -1 150 -20 150 -19 0 -20 -7 -20 -170z"/>
</g>
</svg>
